<?xml version="1.0" standalone="no"?>
<!DOCTYPE svg PUBLIC "-//W3C//DTD SVG 1.1//EN" "http://www.w3.org/Graphics/SVG/1.1/DTD/svg11.dtd" >
<svg xmlns="http://www.w3.org/2000/svg">
<metadata>
<json>
<![CDATA[
{
	"fontFamily": "dri-lyons",
	"majorVersion": 1,
	"minorVersion": 0,
	"version": "Version 1.0",
	"fontId": "dri-lyons",
	"psName": "dri-lyons",
	"subFamily": "Regular",
	"fullName": "dri-lyons",
	"description": "Font generated by IcoMoon."
}
]]>
</json>
</metadata>
<defs>
<font id="dri-lyons" horiz-adv-x="1024">
<font-face units-per-em="1024" ascent="960" descent="-64" />
<missing-glyph horiz-adv-x="1024" />
<glyph unicode="&#x20;" horiz-adv-x="512" d="" />
<glyph unicode="&#xe900;" glyph-name="accordion" data-tags="Accordion" d="M685.84 750.437c3.936-3.772 6.16-8.986 6.16-14.437v-643.085c0-11.046-8.954-20-20-20h-144c-11.046 0-20 8.954-20 20s8.954 20 20 20h124v602.224l-408-17.205v-536.008c0-11.043-8.954-20-20-20s-20 8.957-20 20v555.182c0 10.718 8.449 19.531 19.157 19.982l448.001 18.892c5.443 0.23 10.749-1.773 14.682-5.545zM212.88 720.624c5.549 3.712 12.584 4.41 18.755 1.862l288-118.949c7.482-3.091 12.365-10.39 12.365-18.486v-617.050c0-6.352-3.018-12.33-8.134-16.099-5.114-3.77-11.715-4.886-17.782-3.005l-288.001 89.213c-8.374 2.592-14.082 10.336-14.082 19.104v646.787c0 6.676 3.331 12.912 8.88 16.624zM244 674.101v-602.146l248-76.822v576.541l-248 102.427zM829.827 910.452c3.942-3.773 6.173-8.994 6.173-14.452v-643.085c0-11.046-8.954-20-20-20h-144c-11.046 0-20 8.954-20 20s8.954 20 20 20h124v602.18l-280-12.397v-137.974c0-11.046-8.954-20-20-20s-20 8.954-20 20v157.108c0 10.701 8.426 19.507 19.117 19.98l320 14.169c5.45 0.241 10.765-1.756 14.71-5.529zM486.618 881.663c6.534 3.47 14.451 3.050 20.582-1.093l176-118.95c5.501-3.719 8.8-9.928 8.8-16.57v-617.051c0-11.046-8.954-20-20-20s-20 8.954-20 20v606.428l-136 91.916v-81.293c0-11.046-8.954-20-20-20s-20 8.954-20 20v118.949c0 7.399 4.083 14.193 10.618 17.663z" />
<glyph unicode="&#xe901;" glyph-name="accordion-close" data-tags="Accordion_Close_Primitive" d="M1024 465.786c0-45.168-36.618-81.786-81.786-81.786h-817.868c-45.169 0-81.787 36.618-81.787 81.786 0 45.171 36.617 81.789 81.787 81.789h817.868c45.168 0 81.786-36.618 81.786-81.789z" />
<glyph unicode="&#xe902;" glyph-name="accordion-open" data-tags="Accordion_Open" d="M1002.678 448c0-35.347-28.656-64-64-64h-853.335c-35.346 0-64 28.653-64 64 0 35.344 28.654 64 64 64h853.335c35.344 0 64-28.653 64-64zM512.010 938.666c35.347 0 64-28.654 64-64v-853.335c0-35.344-28.653-64-64-64-35.344 0-64 28.656-64 64v853.335c0 35.346 28.656 64 64 64z" />
<glyph unicode="&#xe903;" glyph-name="account" data-tags="Account" d="M512.006 503.578c-95.226 0-173.334 78.384-173.334 176.211s78.109 176.211 173.334 176.211 173.334-78.385 173.334-176.211c0-97.827-78.109-176.211-173.334-176.211zM512.006 463.578c117.821 0 213.334 96.8 213.334 216.211s-95.514 216.211-213.334 216.211c-117.821 0-213.333-96.801-213.333-216.211s95.512-216.211 213.333-216.211zM52.415-2.906h919.169c-10.333 248.582-212.381 446.477-459.584 446.477s-449.252-197.894-459.585-446.477zM12-22.906c0 279.466 223.606 506.477 500 506.477s500-227.011 500-506.477c0-11.043-8.954-20-20-20h-960c-11.046 0-20 8.957-20 20z" />
<glyph unicode="&#xe904;" glyph-name="account-add" data-tags="Account_Add" d="M600.144 521.024c70.288 28.902 119.856 98.778 119.856 180.386 0 107.469-85.958 194.59-191.997 194.59-106.042 0-192-87.121-192-194.59 0-81.608 49.568-151.484 119.856-180.386-215.518-34.998-379.859-224.259-379.859-452.032 0-11.046 8.954-20 20-20h579.325c-8.755 12.336-16.090 25.747-21.766 40h-537.095c10.295 221.702 190.844 397.827 411.537 397.827 119.802 0 227.776-51.901 303.107-134.822 0.298 0.003 0.595 0.003 0.893 0.003 20.25 0 39.77-3.136 58.099-8.947-68.746 93.050-171.638 158.755-289.955 177.971zM680 701.41c0-85.884-68.554-154.591-151.997-154.591-83.446 0-152 68.707-152 154.591s68.554 154.59 152 154.59c83.443 0 151.997-68.705 151.997-154.59zM832-32c-106.038 0-192 85.962-192 192s85.962 192 192 192c106.038 0 192-85.962 192-192s-85.962-192-192-192zM852 256c0 11.046-8.954 20-20 20s-20-8.954-20-20v-84h-84c-11.046 0-20-8.954-20-20s8.954-20 20-20h84v-84c0-11.046 8.954-20 20-20s20 8.954 20 20v84h84c11.046 0 20 8.954 20 20s-8.954 20-20 20h-84v84z" />
<glyph unicode="&#xe905;" glyph-name="apparel" data-tags="Apparel" d="M362.509 915.231c10.621 3.035 21.69-3.116 24.726-13.736 4.125-14.439 18.579-39.433 41.594-60.855 22.755-21.18 51.453-36.639 83.174-36.639 42.976 0 69.802 14.087 87.859 32.142 18.694 18.696 29.491 43.151 37.168 66.182 3.146 9.442 12.758 15.133 22.55 13.353l-3.578-19.677c3.578 19.677 3.578 19.677 3.578 19.677l0.16-0.030 0.416-0.076 1.552-0.291c1.35-0.255 3.315-0.633 5.824-1.128 5.018-0.99 12.205-2.453 20.97-4.359 17.507-3.806 41.408-9.398 66.893-16.534 25.418-7.117 52.787-15.873 77.091-26.065 23.763-9.964 46.787-22.179 61.658-37.052 14.944-14.943 28.179-40.115 39.491-66.514 11.635-27.146 22.368-58.377 31.469-87.7 9.12-29.389 16.707-57.208 22.010-77.66 2.653-10.234 4.739-18.643 6.166-24.509 0.714-2.934 1.264-5.232 1.635-6.806l0.426-1.805 0.109-0.474 0.038-0.163c0 0 0.003-0.016-19.485-4.512l19.485 4.512c2.317-10.045-3.379-20.224-13.162-23.485l-192-64c-10.477-3.494-21.805 2.17-25.296 12.65-3.494 10.477 2.17 21.805 12.65 25.296l174.55 58.186c-1.091 4.368-2.374 9.434-3.837 15.072-5.2 20.051-12.611 47.232-21.491 75.842-8.899 28.677-19.165 58.446-30.032 83.8-11.187 26.101-21.952 44.929-31.008 53.986-9.13 9.127-26.106 18.912-48.845 28.448-22.192 9.308-47.824 17.552-72.406 24.435-24.515 6.864-47.616 12.272-64.608 15.966-4.054 0.882-7.757 1.664-11.040 2.345-8.445-21.424-20.87-45.247-40.819-65.193-25.942-25.945-63.117-43.858-116.141-43.858-45.078 0-83.046 21.874-110.426 47.361-27.12 25.244-46.262 56.25-52.806 79.145-3.034 10.62 3.117 21.69 13.738 24.725zM387.68 899.578c1.978-10.867-5.232-21.278-16.096-23.255l-0.442-0.081-1.411-0.265c-1.251-0.237-3.11-0.594-5.51-1.067-4.797-0.947-11.734-2.359-20.218-4.204-16.992-3.694-40.092-9.101-64.607-15.966-24.582-6.883-50.214-15.127-72.408-24.435-22.74-9.536-39.716-19.321-48.843-28.448-9.057-9.058-19.823-27.885-31.009-53.987-10.866-25.353-21.132-55.123-30.031-83.799-8.879-28.61-16.293-55.791-21.492-75.842-1.461-5.638-2.746-10.704-3.837-15.072l174.552-58.186c10.479-3.491 16.142-14.819 12.649-25.296-3.493-10.48-14.82-16.144-25.298-12.65l-192 64c-9.782 3.261-15.482 13.424-13.163 23.469l19.488-4.496c-19.488 4.496-19.488 4.496-19.488 4.496l0.041 0.179 0.11 0.474 0.425 1.805c0.372 1.574 0.921 3.872 1.635 6.806 1.427 5.866 3.514 14.275 6.167 24.509 5.302 20.451 12.888 48.27 22.009 77.66 9.1 29.323 19.834 60.554 31.468 87.7 11.314 26.399 24.548 51.571 39.491 66.514 14.873 14.873 37.897 27.088 61.658 37.052 24.306 10.193 51.674 18.948 77.092 26.065 25.485 7.136 49.386 12.728 66.893 16.534 8.765 1.906 15.952 3.369 20.97 4.359 2.509 0.495 4.474 0.873 5.824 1.128l2.112 0.394c0 0 0.016 0.003 3.594-19.674l-3.594 19.674c10.867 1.976 21.296-5.229 23.27-16.097zM784.003 660c11.046 0 20-8.955 20-20v-592c0-8.336-5.171-15.798-12.976-18.726-44.237-16.589-160.797-49.274-279.024-49.274s-234.786 32.685-279.022 49.274c-7.806 2.928-12.978 10.39-12.978 18.726v576c0 11.046 8.954 20 20 20s20-8.954 20-20v-561.859c48.533-16.285 150.074-42.141 252-42.141s203.466 25.856 252 42.141v577.86c0 11.045 8.954 20 20 20z" />
<glyph unicode="&#xe906;" glyph-name="arrow-right" data-tags="Arrow (Stroke)" horiz-adv-x="832" d="M242.745-18.746c-24.994 24.995-24.994 65.517 0 90.509l377.124 377.126-377.124 377.122c-24.994 24.994-24.994 65.516 0 90.51s65.516 24.994 90.509 0l422.378-422.378c24.995-24.995 24.995-65.517 0-90.512l-422.378-422.378c-24.993-24.992-65.516-24.992-90.509 0z" />
<glyph unicode="&#xe908;" glyph-name="arrow-left" data-tags="Arrow (Stroke)-2" horiz-adv-x="832" d="M589.254 914.745c24.995-24.994 24.995-65.516 0-90.51l-377.123-377.125 377.123-377.123c24.995-24.992 24.995-65.514 0-90.509-24.992-24.992-65.517-24.992-90.509 0l-422.379 422.378c-24.994 24.995-24.994 65.517 0 90.512l422.379 422.377c24.992 24.993 65.517 24.993 90.509 0z" />
<glyph unicode="&#xe909;" glyph-name="arrow-down" data-tags="Arrow (Stroke)-3" d="M45.255 621.255c24.994 24.994 65.516 24.994 90.51 0l377.125-377.124 377.123 377.124c24.992 24.994 65.514 24.994 90.509 0 24.992-24.994 24.992-65.516 0-90.509l-422.378-422.378c-24.995-24.995-65.517-24.995-90.512 0l-422.377 422.378c-24.993 24.993-24.993 65.516 0 90.509z" />
<glyph unicode="&#xe90a;" glyph-name="arrow-up" data-tags="Arrow Primitive" d="M978.746 178.746c-24.995-24.995-65.517-24.995-90.509 0l-377.126 377.123-377.122-377.123c-24.994-24.995-65.516-24.995-90.51 0-24.994 24.992-24.994 65.517 0 90.509l422.378 422.379c24.995 24.994 65.517 24.994 90.512 0l422.378-422.379c24.992-24.992 24.992-65.517 0-90.509z" />
<glyph unicode="&#xe90b;" glyph-name="banners" data-tags="Banners" d="M678.406 99.2c-22.4 0-38.4 3.2-41.6 3.2-454.4 112-544 48-547.2 48-6.4-6.4-12.8-6.4-22.4-3.2-6.4 3.2-12.8 9.6-12.8 19.2v502.4c0 0 0 12.8 12.8 25.6 48 44.8 236.8 25.6 553.6-48 9.6 0 22.4-3.2 35.2-3.2v70.4c0 54.4 80 86.4 156.8 89.6s121.6-22.4 124.8-67.2c0-3.2 0-9.6 0-12.8v-470.4c0-3.2 0-6.4-3.2-6.4-51.2-128-188.8-147.2-256-147.2zM646.406 140.8c0 0 192-22.4 252.8 115.2v387.2c-83.2-67.2-275.2-35.2-281.6-35.2-444.8 105.6-512 67.2-518.4 57.6v-470.4c57.6 19.2 201.6 32 547.2-54.4zM700.806 640c64-3.2 140.8 3.2 176 38.4 12.8 12.8 19.2 25.6 22.4 44.8v9.6c0 22.4-44.8 32-83.2 28.8-64-3.2-118.4-28.8-115.2-48v-73.6zM99.206 672v0zM147.2 604.8c10.604 0 19.2 8.595 19.2 19.2s-8.596 19.2-19.2 19.2c-10.604 0-19.2-8.596-19.2-19.2s8.596-19.2 19.2-19.2zM147.2 252.8c10.604 0 19.2 8.595 19.2 19.2s-8.596 19.2-19.2 19.2c-10.604 0-19.2-8.595-19.2-19.2s8.596-19.2 19.2-19.2z" />
<glyph unicode="&#xe90c;" glyph-name="bottom-of-copy" data-tags="Bottom of copy" d="M301.36 399.613c25.632 51.264 42.64 124.886 42.64 208.387 0 83.502-17.008 157.122-42.64 208.386-26.828 53.656-56.49 71.614-77.36 71.614s-50.532-17.958-77.36-71.614c-25.632-51.264-42.64-124.883-42.64-208.386 0-83.501 17.008-157.123 42.64-208.387 26.828-53.654 56.49-71.613 77.36-71.613s50.532 17.958 77.36 71.613zM384 608c0-176.73-71.635-320-160-320s-160 143.27-160 320c0 176.731 71.635 320 160 320s160-143.269 160-320zM216 499.152c0.757 1.667 1.533 3.504 2.318 5.523 7.922 20.371 13.682 51.232 13.682 87.325s-5.76 66.955-13.682 87.325c-0.785 2.018-1.561 3.855-2.318 5.524-0.757-1.669-1.533-3.507-2.318-5.524-7.922-20.371-13.682-51.233-13.682-87.325s5.76-66.954 13.682-87.325c0.785-2.019 1.561-3.856 2.318-5.523zM272 592c0-79.53-25.072-144-56-144s-56 64.47-56 144c0 79.529 25.072 144 56 144s56-64.471 56-144zM672 932h-448v-40h447.434c44.566-2.591 111.987-20.677 167.926-66.299 55.36-45.15 100.64-118.134 100.64-233.701v-588h-552v588h-40v-608c0-11.046 8.954-20 20-20h592c11.046 0 20 8.954 20 20v608c0 127.633-50.72 211.982-115.36 264.699-63.834 52.060-140.093 72.413-191.53 75.27-0.371 0.021-0.739 0.031-1.11 0.031zM352 324h-112v-40h112v40zM944 532h-560v-40h560v40zM719.936 163.747h-98.624l-18.749-52.746h-59.814l101.626 256h52.125l102.189-256h-59.814l-18.938 52.746zM636.499 206.474h68.25l-34.31 95.824-33.939-95.824zM681.174 644.747h-86.317l-3.117-52.747h-52.349l22.989 256h61.619l155.392-256h-68.349l-29.869 52.747zM608 687.473h59.734l-59.734 96.527v-96.527z" />
<glyph unicode="&#xe90d;" glyph-name="brochures" data-tags="Brochures" d="M394.899 880.77c5.677-3.689 9.101-10 9.101-16.77v-704c0-7.904-4.656-15.066-11.878-18.275l-287.999-128c-6.187-2.752-13.344-2.182-19.021 1.504-5.677 3.69-9.102 10-9.102 16.771v704c0 7.904 4.655 15.066 11.877 18.276l288.001 128c6.186 2.75 13.344 2.183 19.021-1.506zM116 723.003v-660.228l248 110.224v660.226l-248-110.222zM970.899 880.77c5.677-3.689 9.101-10 9.101-16.77v-704c0-7.904-4.656-15.066-11.878-18.275l-288-128c-6.186-2.752-13.344-2.182-19.021 1.504-5.677 3.69-9.101 10-9.101 16.771v704c0 7.904 4.656 15.066 11.878 18.276l288 128c6.186 2.75 13.344 2.183 19.021-1.506zM692 723.003v-660.228l248 110.224v660.226l-248-110.222zM373.101 880.77c5.677 3.689 12.835 4.256 19.021 1.506l288-128c7.222-3.21 11.878-10.372 11.878-18.276v-704c0-6.771-3.424-13.082-9.101-16.771-5.677-3.686-12.835-4.256-19.021-1.504l-288 128c-7.222 3.21-11.878 10.371-11.878 18.275v704c0 6.77 3.424 13.081 9.101 16.77zM404 833.225v-660.226l248-110.224v660.228l-248 110.222z" />
<glyph unicode="&#xe90e;" glyph-name="call" data-tags="Call" d="M512-24c-260.678 0-472 211.322-472 472s211.322 472 472 472c260.678 0 472-211.322 472-472s-211.322-472-472-472zM512-64c282.771 0 512 229.229 512 512s-229.229 512-512 512c-282.77 0-512-229.23-512-512s229.23-512 512-512zM277.325 793.944c12.936 8.528 28.020 15.389 42.675 15.389 1.619 0 3.229-0.196 4.8-0.585 26.653-6.589 65.462-23.94 97.933-55.089 32.918-31.577 59.488-77.598 59.488-140.14 0-3.133-0.736-6.224-2.15-9.024l-17.85 9.024c17.85-9.024 17.85-9.024 17.85-9.024l-0.019-0.038-0.035-0.067-0.106-0.211-0.368-0.707c-0.314-0.598-0.762-1.443-1.331-2.499-1.142-2.106-2.79-5.069-4.874-8.602-4.144-7.024-10.128-16.506-17.402-26.096-7.187-9.478-16.128-19.725-26.304-27.776-3.728-2.947-7.926-5.846-12.534-8.31 2.141-2.614 4.614-5.523 7.424-8.717 17.744-20.166 45.024-47.344 73.808-74.467 28.698-27.043 58.426-53.594 80.838-72.422 7.965-6.694 14.842-12.272 20.333-16.506 5.872 6.832 13.894 15.482 23.571 24.182 20.458 18.39 51.898 40.288 88.038 40.288 43.565 0 84.061-27.069 112.464-57.792 14.518-15.702 26.742-33.248 35.424-50.611 8.547-17.094 14.336-35.366 14.336-52.246 0-14.035-6.506-30.915-15.504-46.339-9.405-16.122-23.062-33.29-40.454-48.032-35.053-29.712-86.592-50.381-148.083-30.112-110.416 36.4-219.642 108.787-327.802 215.75-109.708 108.496-148.158 218.874-148.158 295.519 0 41.509 20.693 81.087 44.706 109.584 12.165 14.437 25.793 26.78 39.285 35.676zM588.246 343.69l16.198-11.469c-13.107 9.277-15.693 11.104-16.198 11.469zM621.907 322.208c-0.966-1.763-2.282-3.526-4.058-5.168-5.552-5.123-11.882-5.526-14.707-5.437-4.992 0.157-8.982 2.115-10.128 2.675l-0.074 0.038c-3.405 1.664-7.197 4.214-10.65 6.691-7.344 5.267-17.376 13.302-28.858 22.95-23.101 19.411-53.402 46.483-82.538 73.936-29.050 27.373-57.411 55.568-76.403 77.152-9.238 10.499-17.328 20.618-21.875 28.771-1.197 2.15-2.419 4.634-3.341 7.299-0.842 2.445-1.926 6.416-1.565 11.098 0.413 5.338 2.816 11.818 8.938 16.378 5.386 4.010 11.126 4.605 14.461 4.605 2.4 0 6.944 1.325 13.702 6.672 6.493 5.136 13.104 12.47 19.251 20.576 6.061 7.99 11.187 16.090 14.819 22.25 1.309 2.214 2.406 4.157 3.27 5.718-1.309 47.448-21.635 81.944-47.11 106.381-25.565 24.525-56.154 38.666-76.935 44.365-3.7-0.605-10.101-2.897-18.766-8.61-9.841-6.488-20.658-16.122-30.715-28.056-20.432-24.247-35.294-54.993-35.294-83.809 0-64.005 32.661-164.601 136.286-267.077 105.174-104.013 209.28-172.275 312.198-206.202 45.178-14.893 82.525-0.397 109.696 22.634 13.718 11.629 24.506 25.229 31.766 37.677 7.667 13.142 10.054 22.637 10.054 26.182 0 8.39-3.101 20.336-10.112 34.355-6.87 13.744-16.87 28.205-29.018 41.347-24.931 26.966-55.549 44.947-83.094 44.947-20.746 0-42.64-13.267-61.296-30.035-8.918-8.019-16.275-16.099-21.408-22.189-2.557-3.030-4.525-5.533-5.83-7.238-0.246-0.32-0.47-0.614-0.669-0.877z" />
<glyph unicode="&#xe90f;" glyph-name="cart" data-tags="Cart" d="M203.106 841.719c-12.322 8.698-25.329 9.104-42.478 9.104h-100.392c-10.396 0-18.824 8.428-18.824 18.824s8.428 18.824 18.824 18.824h100.392c0.381 0 0.766 0 1.155 0 16.309 0.010 40.341 0.023 63.033-15.995 23.13-16.327 41.448-46.587 54.465-98.656l0.182-0.729 60.249-361.484h423.267c71.195 0 101.493 44.002 107.634 62.425l0.108 0.331 65.879 175.676h-474.799c-10.394 0-18.824 8.427-18.824 18.824s8.43 18.824 18.824 18.824h501.962c6.174 0 11.954-3.027 15.471-8.102s4.322-11.55 2.153-17.331l-75.18-200.483c-10.794-31.837-54.13-87.811-143.23-87.811h-416.994l8.635-51.814c3.59-9.993 11.936-25.281 25.398-38.063 13.74-13.044 32.295-23.064 56.687-23.064h426.668c10.394 0 18.824-8.427 18.824-18.824 0-10.394-8.43-18.824-18.824-18.824h-426.668c-35.843 0-63.301 15.080-82.607 33.41-18.986 18.025-30.586 39.587-35.643 54.757l-0.467 1.4-75.412 452.472c-12.051 47.802-27.108 67.583-39.472 76.31zM436.703 28.862c-34.65 0-62.744 28.091-62.744 62.744s28.094 62.747 62.744 62.747c34.653 0 62.747-28.094 62.747-62.747s-28.094-62.744-62.747-62.744zM436.703-8.785c55.447 0 100.394 44.948 100.394 100.391 0 55.447-44.948 100.394-100.394 100.394-55.444 0-100.391-44.948-100.391-100.394 0-55.444 44.948-100.391 100.391-100.391zM788.079 28.862c-34.653 0-62.744 28.091-62.744 62.744s28.091 62.747 62.744 62.747c34.653 0 62.747-28.094 62.747-62.747s-28.094-62.744-62.747-62.744zM788.079-8.785c55.447 0 100.394 44.948 100.394 100.391 0 55.447-44.948 100.394-100.394 100.394-55.444 0-100.391-44.948-100.391-100.394 0-55.444 44.948-100.391 100.391-100.391z" />
<glyph unicode="&#xe915;" d="M1024 448c0-282.77-229.23-512-512-512s-512 229.23-512 512c0 282.77 229.23 512 512 512s512-229.23 512-512z" />
<glyph unicode="&#xe916;" d="M796.803 657.067c21.206-15.906 25.504-45.992 9.6-67.202l-320-426.666c-9.066-12.086-23.293-19.2-38.4-19.2s-29.334 7.114-38.4 19.2l-192 256c-15.906 21.21-11.608 51.296 9.6 67.2 21.208 15.907 51.294 11.61 67.2-9.6l153.6-204.8 281.6 375.467c15.904 21.208 45.99 25.506 67.2 9.6z" />
<glyph unicode="&#xe917;" glyph-name="circle" data-tags="Circle" d="M512 40c-225.332 0-408 182.669-408 408s182.668 408 408 408c225.331 0 408-182.668 408-408s-182.669-408-408-408zM512 0c247.424 0 448 200.576 448 448s-200.576 448-448 448c-247.424 0-448-200.576-448-448s200.576-448 448-448z" />
<glyph unicode="&#xe918;" glyph-name="contact-us" data-tags="Contact_Us" d="M277.036 873.053c-1.642-1.027-7.363-5.008-7.364-24.944l0.002-95.783c0-11.046-8.954-20-20-20.001s-20 8.954-20 20l-0.002 95.783c0.001 27.954 8.649 47.919 26.164 58.865 14.554 9.096 31.629 9.052 40.509 9.028 0.426-0.001 0.833-0.002 1.22-0.002h646.533c11.181 0 27.51-3.19 41.619-13.348 15.126-10.892 26.272-28.869 26.272-54.544v-478.914c0-11.181-3.19-27.51-13.347-41.616-10.893-15.13-28.87-26.275-54.544-26.275h-526.806c-11.043 0-20 8.954-20 20s8.957 20 20 20h526.806c12.637 0 18.608 4.819 22.083 9.645 4.208 5.85 5.808 13.466 5.808 18.246v478.914c0 12.638-4.819 18.607-9.645 22.083-5.846 4.21-13.466 5.809-18.246 5.809h-646.533c-10.7 0-16.625-0.506-20.53-2.947zM141.884 744.38c5.584 4.188 12.948 5.162 19.428 2.57 52.42-20.969 93.032-59.859 122.293-98.733 29.279-38.898 48.232-79.148 56.875-105.077 2.723-8.166-0.086-17.158-6.973-22.326l-81.761-61.318c0.091-0.157 0.183-0.317 0.276-0.477 5.694-9.814 14.014-23.68 24.455-39.779 20.959-32.314 50.128-73.088 83.459-108.090 34.736-36.477 51.363-52.941 70.755-66.49 17.834-12.461 38.189-22.618 77.754-42.365 0.224-0.112 0.448-0.224 0.672-0.336l61.651 61.651c6.586 6.586 16.845 7.754 24.742 2.816l191.565-119.728c6.854-4.285 10.458-12.275 9.126-20.246-4.314-25.885-15.846-64.573-37.056-97.37-21.194-32.778-54.486-63.018-102.4-63.018-126.886 0-416.275 90.070-592.246 441.395-24.953 41.773-43.802 91.936-50.167 138.624-6.266 45.955-1.033 93.945 29.628 124.603 0.669 0.669 1.384 1.289 2.141 1.857l95.782 71.837zM225.724 464.976l-17.65-9.405c-4.638 8.704-2.239 19.488 5.65 25.405l83.838 62.88c-8.863 21.834-24.172 51.418-45.916 80.304-24.509 32.562-56.315 63.080-95.057 81.249l-85.257-63.943c-16.563-17.437-22.972-48.877-17.368-89.978 5.572-40.867 22.478-86.202 45.23-124.109l0.396-0.662 0.344-0.688c168.865-337.744 444.314-419.965 556.81-419.965 28.714 0 51.296 17.651 68.813 44.739 14.342 22.179 23.658 48.442 28.573 69.315l-166.33 103.955-60.586-60.586c-6.090-6.090-15.389-7.597-23.088-3.747-5.021 2.509-9.805 4.896-14.378 7.174-38.304 19.101-61.568 30.701-81.968 44.954-23.213 16.218-42.506 35.67-76.813 71.696-35.712 37.501-66.407 80.538-88.052 113.907-10.861 16.746-19.527 31.187-25.495 41.475-2.985 5.142-5.298 9.254-6.877 12.102-0.789 1.424-1.395 2.531-1.81 3.293l-0.478 0.883-0.129 0.243-0.055 0.102c0 0 0 0 17.65 9.405zM574.339 647.458c8.208-7.389 8.874-20.034 1.485-28.245l-215.51-239.456c-7.389-8.211-20.035-8.877-28.246-1.488-8.208 7.389-8.874 20.035-1.485 28.246l215.51 239.456c7.389 8.21 20.035 8.876 28.246 1.487zM691.12 647.335c8.141 7.464 20.794 6.914 28.256-1.228l263.402-287.348c7.466-8.141 6.915-20.794-1.229-28.256-8.141-7.466-20.794-6.915-28.256 1.226l-263.402 287.35c-7.466 8.141-6.915 20.794 1.229 28.257zM620.314 569.082l-359.184 287.349 24.988 31.235 346.251-276.999 322.666 276.567 26.029-30.37-335.238-287.349c-7.296-6.253-18.006-6.435-25.51-0.432z" />
<glyph unicode="&#xe919;" glyph-name="corner" data-tags="Corner" d="M780.8-20c-5.302 0-10.39 2.106-14.141 5.859l-179.2 179.2c-7.811 7.808-7.811 20.474 0 28.282 7.811 7.811 20.474 7.811 28.285 0l145.056-145.056v444.515c0 85.389-29.088 135.027-66.893 163.985-38.768 29.693-89.792 40.015-137.107 40.015h-444.516l145.058-145.060c7.811-7.808 7.811-20.474 0-28.282-7.811-7.811-20.474-7.811-28.284 0l-179.2 179.199c-7.811 7.81-7.811 20.474 0 28.284l179.2 179.199c7.81 7.811 20.474 7.811 28.284 0s7.811-20.474 0-28.284l-145.058-145.058h444.516c52.067 0 113.040-11.195 161.43-48.26 49.35-37.801 82.57-100.162 82.57-195.74v-444.515l145.059 145.056c7.808 7.811 20.474 7.811 28.282 0 7.811-7.808 7.811-20.474 0-28.282l-179.197-179.2c-3.754-3.754-8.838-5.859-14.144-5.859z" />
<glyph unicode="&#xe91a;" glyph-name="gear-solid" data-tags="Custom Solid" d="M448 960h128c17.674 0 32-14.327 32-32v-108.098c35.235-9.069 68.512-23.012 99.069-41.069l76.461 76.46c12.496 12.497 32.758 12.497 45.254 0l90.509-90.509c12.499-12.497 12.499-32.758 0-45.255l-76.461-76.46c18.058-30.557 32.003-63.834 41.069-99.069h108.099c17.674 0 32-14.326 32-32v-128c0-17.674-14.326-32-32-32h-108.099c-9.066-35.235-23.011-68.512-41.069-99.069l76.461-76.461c12.496-12.496 12.496-32.758 0-45.254l-90.509-90.509c-12.499-12.496-32.758-12.496-45.254 0l-76.461 76.458c-30.557-18.054-63.834-32-99.069-41.066v-108.099c0-17.674-14.326-32-32-32h-128c-17.674 0-32 14.326-32 32v108.099c-35.235 9.066-68.512 23.011-99.069 41.069l-76.46-76.461c-12.497-12.496-32.758-12.496-45.255 0l-90.51 90.509c-12.497 12.496-12.497 32.758 0 45.254l76.46 76.461c-18.057 30.557-32 63.834-41.069 99.069h-108.098c-17.673 0-32 14.326-32 32v128c0 17.674 14.327 32 32 32h108.098c9.069 35.235 23.012 68.512 41.069 99.068l-76.461 76.461c-12.497 12.497-12.497 32.758 0 45.255l90.51 90.509c12.497 12.497 32.758 12.497 45.255 0l76.46-76.46c30.557 18.057 63.834 32.001 99.069 41.069v108.098c0 17.673 14.326 32 32 32zM512 256c106.038 0 192 85.962 192 192s-85.962 192-192 192c-106.038 0-192-85.962-192-192s85.962-192 192-192z" />
<glyph unicode="&#xe91b;" glyph-name="gear" data-tags="Custom" d="M574.4 779.077l29.114-8.234c25.354-7.171 49.491-17.252 72.038-29.868l26.413-14.781 99.667 99.668 88.25-88.247-99.674-99.673 14.778-26.413c12.611-22.538 22.688-46.672 29.859-72.016l8.234-29.114h140.922v-124.8h-140.922l-8.234-29.114c-7.171-25.344-17.248-49.478-29.859-72.016l-14.778-26.413 99.69-99.69-88.246-88.25-99.686 99.686-26.413-14.781c-22.547-12.614-46.685-22.698-72.038-29.869l-29.114-8.234v-140.922h-124.8v140.922l-29.114 8.234c-25.354 7.171-49.491 17.254-72.035 29.869l-26.416 14.781-99.668-99.67-88.247 88.246 99.673 99.674-14.778 26.413c-12.611 22.541-22.689 46.672-29.858 72.019l-8.234 29.114h-140.923v124.8h140.923l8.234 29.114c7.171 25.354 17.252 49.491 29.868 72.038l14.781 26.413-99.668 99.668 88.247 88.247 99.673-99.672 26.413 14.778c22.538 12.61 46.672 22.688 72.016 29.857l29.114 8.234v140.923h124.8v-140.923zM218.218 65.987v0c0.003 0.003-0.003-0.003 0 0zM614.4 809.333v116.533c0 18.851-15.283 34.133-34.134 34.133h-136.531c-18.851 0-34.134-15.282-34.134-34.133v-116.533c-28.397-8.032-55.427-19.321-80.662-33.439l-82.417 82.419c-13.33 13.33-34.942 13.33-48.272 0l-96.544-96.544c-13.33-13.33-13.33-34.942 0-48.272l82.414-82.412c-14.124-25.242-25.418-52.278-33.452-80.685h-116.533c-18.851 0-34.133-15.283-34.133-34.134v-136.531c0-18.851 15.282-34.134 34.133-34.134h116.533c8.032-28.397 19.322-55.43 33.44-80.662l-82.42-82.419c-13.33-13.331-13.33-34.941 0-48.272l96.544-96.544c13.33-13.331 34.942-13.331 48.272 0l82.416 82.416c25.238-14.125 52.275-25.418 80.682-33.453v-116.531c0-18.851 15.283-34.134 34.134-34.134h136.531c18.851 0 34.134 15.283 34.134 34.134v116.531c28.406 8.035 55.443 19.328 80.685 33.453l82.432-82.432c13.328-13.328 34.941-13.328 48.269 0l96.544 96.544c13.331 13.331 13.331 34.941 0 48.272l-82.435 82.435c14.118 25.235 25.408 52.266 33.44 80.662h116.531c18.851 0 34.134 15.283 34.134 34.134v136.531c0 18.851-15.283 34.134-34.134 34.134h-116.531c-8.032 28.397-19.322 55.427-33.44 80.662l82.419 82.417c13.328 13.33 13.328 34.942 0 48.272l-96.544 96.544c-13.331 13.33-34.941 13.33-48.272 0l-82.413-82.414c-25.242 14.124-52.278 25.418-80.685 33.452zM722.666 448c0 116.349-94.317 210.667-210.666 210.667s-210.667-94.318-210.667-210.667c0-116.349 94.318-210.666 210.667-210.666s210.666 94.317 210.666 210.666zM682.666 448c0-94.256-76.41-170.666-170.666-170.666s-170.666 76.41-170.666 170.666c0 94.256 76.41 170.666 170.666 170.666s170.666-76.41 170.666-170.666z" />
<glyph unicode="&#xe91c;" glyph-name="customer-review" data-tags="Customer Review" d="M496 504c-75.11 0-136 60.89-136 136s60.89 136 136 136c75.11 0 136-60.889 136-136s-60.89-136-136-136zM496 464c97.203 0 176 78.797 176 176s-78.797 176-176 176c-97.203 0-176-78.798-176-176s78.797-176 176-176zM496 8c-251.842 0-456 204.157-456 456s204.158 456 456 456c251.843 0 456-204.158 456-456s-204.157-456-456-456zM496-32c273.933 0 496 222.067 496 496s-222.067 496-496 496c-273.933 0-496-222.067-496-496s222.067-496 496-496zM496 460c-173.654 0-316-147.754-316-332 0-11.046-8.954-20-20-20s-20 8.954-20 20c0 204.563 158.52 372 356 372 197.478 0 356-167.437 356-372 0-11.046-8.954-20-20-20s-20 8.954-20 20c0 184.246-142.346 332-316 332zM592 640c0-53.021-42.979-96-96-96v-80c97.203 0 176 78.797 176 176h-80zM496 736c53.021 0 96-42.981 96-96h80c0 97.202-78.797 176-176 176v-80zM400 640c0 53.019 42.979 96 96 96v80c-97.203 0-176-78.798-176-176h80zM496 544c-53.021 0-96 42.979-96 96h-80c0-97.203 78.797-176 176-176v80zM632 640c0-75.11-60.89-136-136-136v-80c119.293 0 216 96.707 216 216h-80zM496 776c75.11 0 136-60.889 136-136h80c0 119.293-96.707 216-216 216v-80zM360 640c0 75.111 60.89 136 136 136v80c-119.293 0-216-96.707-216-216h80zM496 504c-75.11 0-136 60.89-136 136h-80c0-119.293 96.707-216 216-216v80zM912 464c0-229.75-186.25-416-416-416v-80c273.933 0 496 222.067 496 496h-80zM496 880c229.75 0 416-186.25 416-416h80c0 273.933-222.067 496-496 496v-80zM80 464c0 229.75 186.25 416 416 416v80c-273.933 0-496-222.067-496-496h80zM496 48c-229.75 0-416 186.25-416 416h-80c0-273.933 222.067-496 496-496v80zM952 464c0-251.843-204.157-456-456-456v-80c296.026 0 536 239.974 536 536h-80zM496 920c251.843 0 456-204.158 456-456h80c0 296.025-239.974 536-536 536v-80zM40 464c0 251.842 204.158 456 456 456v80c-296.025 0-536-239.975-536-536h80zM496 8c-251.842 0-456 204.157-456 456h-80c0-296.026 239.975-536 536-536v80zM220 128c0 163.894 126.138 292 276 292v80c-197.448 0-356-167.405-356-372h80zM160 68c33.137 0 60 26.864 60 60h-80c0 11.046 8.954 20 20 20v-80zM100 128c0-33.136 26.863-60 60-60v80c11.046 0 20-8.954 20-20h-80zM496 540c-221.333 0-396-187.149-396-412h80c0 184.275 142.374 332 316 332v80zM892 128c0 224.851-174.666 412-396 412v-80c173.626 0 316-147.725 316-332h80zM832 68c33.136 0 60 26.864 60 60h-80c0 11.046 8.954 20 20 20v-80zM772 128c0-33.136 26.864-60 60-60v80c11.046 0 20-8.954 20-20h-80zM496 420c149.862 0 276-128.106 276-292h80c0 204.595-158.55 372-356 372v-80z" />
<glyph unicode="&#xe91d;" glyph-name="cut-to-size-stickers" data-tags="Cut-To-Size_Stickers" d="M502.813 897.764c5.763 2.981 12.611 2.981 18.374 0l464-240c6.643-3.435 10.813-10.288 10.813-17.764 0-7.478-4.17-14.33-10.813-17.763l-464-240c-5.763-2.982-12.611-2.982-18.374 0l-464.001 240c-6.641 3.434-10.811 10.285-10.811 17.763s4.171 14.329 10.811 17.764l464.001 240zM91.533 640l420.467-217.482 420.467 217.482-420.467 217.483-420.467-217.483zM225.383 564.925c5.462-9.6 2.108-21.811-7.493-27.274l-127.976-72.813 422.086-218.32 422.086 218.32-127.978 72.813c-9.6 5.462-12.954 17.674-7.491 27.274s17.674 12.957 27.274 7.494l160-91.037c6.374-3.626 10.253-10.451 10.106-17.782s-4.294-13.997-10.81-17.363l-464-240c-5.763-2.982-12.611-2.982-18.374 0l-464.001 240c-6.514 3.366-10.661 10.032-10.808 17.363s3.732 14.157 10.105 17.782l160 91.037c9.601 5.462 21.812 2.106 27.274-7.494zM241.764 361.187c5.075-9.811 1.235-21.878-8.576-26.95l-141.656-73.27 420.467-217.485 420.467 217.485-141.654 73.27c-9.811 5.072-13.651 17.139-8.576 26.95 5.072 9.811 17.139 13.651 26.95 8.576l176-91.034c6.643-3.434 10.813-10.288 10.813-17.763 0-7.478-4.17-14.33-10.813-17.766l-464-240c-5.763-2.979-12.611-2.979-18.374 0l-464.001 240c-6.641 3.437-10.811 10.288-10.811 17.766 0 7.475 4.171 14.33 10.811 17.763l176 91.034c9.811 5.075 21.878 1.235 26.953-8.576z" />
<glyph unicode="&#xe91e;" glyph-name="design-tool" data-tags="Design_Tool" d="M656.579 915.426c5.245 1.284 10.781 0.395 15.36-2.466l170.666-106.667c9.19-5.743 12.134-17.76 6.64-27.1l-426.669-725.334c-2.16-3.674-5.44-6.563-9.36-8.243l-149.332-64c-5.775-2.474-12.379-2.090-17.829 1.037s-9.115 8.63-9.894 14.867l-21.333 170.666c-0.547 4.381 0.369 8.816 2.607 12.621l426.666 725.334c2.736 4.652 7.238 8.001 12.48 9.285zM668.16 868.151l-42.458-72.177 136.736-85.459 42.458 72.177-136.736 85.459zM742.15 676.026l-136.736 85.459-350.053-595.091 17.193-137.542 118.873 50.947 350.723 596.227z" />
<glyph unicode="&#xe91f;" glyph-name="dislike" data-tags="Dislike" d="M407.728 95.424c4.694 5.744 9.235 18.701 0.442 47.43l-0.877 2.861v2.992c0 49.11 13.283 86.886 35.040 117.293 21.434 29.955 50.282 51.59 79.386 69.91 12.806 8.064 26.016 15.693 38.806 23.078 1.747 1.008 3.485 2.013 5.213 3.011 14.547 8.416 28.499 16.605 41.616 25.322 26.266 17.453 47.789 36.138 61.936 60.272l5.795 9.885h288.685c11.043 0 20-8.954 20-20s-8.957-20-20-20h-266.234c-18.17-26.637-42.618-46.576-68.045-63.472-14.256-9.472-29.171-18.211-43.725-26.63-1.76-1.018-3.51-2.029-5.258-3.037-12.861-7.43-25.366-14.653-37.482-22.278-27.526-17.328-51.216-35.654-68.166-59.338-16.24-22.698-27.056-51.408-27.549-91.168 9.482-32.88 7.952-61.165-8.605-81.437-16.563-20.278-43.107-26.118-67.885-26.118-18.118 0-33.258 8.797-44.861 19.814-11.591 11.002-21.053 25.459-28.481 40.349-14.722 29.51-23.667 65.283-23.667 90.746 0 22.41 0.907 46.896 8.072 74.851 4.995 19.485 12.915 40.234 25.244 63.011h-141.804c-42.745 0-80.14 9.603-107.53 27.328-27.679 17.91-45.798 44.819-45.798 77.379 0 35.386 5.43 60.835 15.814 78.080 7.038 11.69 16.148 19.206 26.059 23.174-5.747 35.491-6.994 77.101-2.336 117.694 7.068 61.591 28.412 126.574 74.594 163.7 44.849 36.055 115.129 50.532 170.538 56.645 28.339 3.126 54.044 4.18 72.659 4.457 9.322 0.138 16.896 0.082 22.176-0.010 2.64-0.046 4.707-0.101 6.134-0.146l1.818-0.062c6.842 0.005 14.848 0.14 23.792 0.29 32.531 0.546 77.466 1.301 123.866-3.207 57.133-5.551 120.134-19.293 169.021-53.554h247.638c11.043 0 20-8.954 20-20s-8.957-20-20-20h-260.787l-5.334 4c-40.749 30.563-97.475 44.209-154.403 49.741-43.85 4.261-85.491 3.572-117.949 3.035-9.613-0.159-18.416-0.305-26.237-0.305h-0.435l-0.506 0.022-0.33 0.013-1.398 0.047c-1.254 0.039-3.139 0.090-5.587 0.132-4.899 0.085-12.042 0.14-20.886 0.008-17.709-0.263-42.102-1.268-68.865-4.22-54.791-6.044-114.711-19.803-149.862-48.061-33.819-27.188-53.259-79.068-59.917-137.086-6.597-57.489 0.035-115.341 12.779-149.325 3.878-10.342-1.362-21.872-11.704-25.75s-21.871 1.363-25.749 11.706c-1.047 2.79-2.053 5.69-3.019 8.685-0.491-0.662-0.992-1.408-1.501-2.253-4.917-8.166-10.082-25.069-10.082-57.45 0-16.067 8.545-31.514 27.529-43.798 19.274-12.47 48.543-20.909 85.799-20.909h214.633l-20.73-31.094c-21.51-32.266-32.682-58.771-38.595-81.85-5.928-23.126-6.82-43.69-6.82-64.918 0-18.173 6.97-47.856 19.46-72.89 6.179-12.384 13.146-22.47 20.227-29.197 7.072-6.71 12.851-8.822 17.322-8.822 20.403 0 31.718 5.072 36.906 11.424zM952 562.186h-145.885v145.883h145.885v-145.883zM960 522.186c17.674 0 32 14.326 32 32v161.883c0 17.673-14.326 32-32 32h-161.885c-17.674 0-32-14.327-32-32v-161.883c0-17.674 14.326-32 32-32h161.885zM935.536 409.235h-112.941v112.944h112.941v-112.944zM935.536 748.081h-112.941v56.471h112.941v-56.471z" />
<glyph unicode="&#xe920;" glyph-name="double-gate-fold" data-tags="Double Gate Fold" d="M84.584 816.422c5.378 3.739 12.245 4.607 18.384 2.325l320.001-118.949c7.834-2.912 13.030-10.389 13.030-18.747v-713.050c0-6.253-2.925-12.147-7.904-15.93-4.982-3.779-11.443-5.014-17.466-3.334l-320.001 89.21c-8.647 2.413-14.629 10.288-14.629 19.267v742.787c0 6.549 3.207 12.684 8.584 16.422zM116 771.228v-698.828l280-78.061v672.808l-280 104.081zM524.349 943.733c-4.832 3.791-11.136 5.153-17.101 3.694l-416.001-101.778c-8.951-2.19-15.247-10.212-15.247-19.427v-698.222c0-11.046 8.954-20 20-20s20 8.954 20 20v682.525l376 91.991v-670.734l-80.89-20.39c-10.71-2.698-17.203-13.568-14.502-24.282 2.698-10.71 13.568-17.203 24.282-14.506l96 24.198c8.883 2.24 15.11 10.23 15.11 19.392v711.804c0 6.141-2.822 11.942-7.651 15.733zM971.414 816.422c-5.376 3.739-12.243 4.607-18.384 2.325l-320-118.949c-7.834-2.912-13.030-10.389-13.030-18.747v-713.050c0-6.253 2.925-12.147 7.904-15.93 4.982-3.779 11.443-5.014 17.466-3.334l320 89.21c8.65 2.413 14.63 10.288 14.63 19.267v742.787c0 6.549-3.206 12.684-8.586 16.422zM940 771.228v-698.828l-280-78.061v672.808l280 104.081zM499.523 943.63c4.752 3.795 10.976 5.22 16.909 3.873l448-101.777c9.104-2.069 15.568-10.164 15.568-19.503v-698.222c0-11.046-8.954-20-20-20s-20 8.954-20 20v682.256l-408 92.69v-670.303l95.862-18.874c10.838-2.131 17.894-12.646 15.76-23.485-2.131-10.838-12.646-17.894-23.485-15.76l-112 22.048c-9.376 1.846-16.138 10.067-16.138 19.622v711.804c0 6.083 2.768 11.835 7.523 15.63z" />
<glyph unicode="&#xe921;" glyph-name="double-parallel-fold" data-tags="Double Parallel Fold" d="M780.464 915.912c4.765-3.795 7.539-9.554 7.539-15.645v-196.267c0-11.045-8.954-20-20-20-11.043 0-20 8.955-20 20v160.538l-289.542-177.587c-9.414-5.775-21.731-2.824-27.504 6.592-5.776 9.416-2.826 21.73 6.592 27.505l215.83 132.376-456.899-104.917c-10.766-2.472-21.497 4.251-23.969 15.017s4.251 21.497 15.017 23.969l576.001 132.267c5.936 1.363 12.17-0.053 16.934-3.848zM181.637 785.104c5.98 3.625 13.419 3.863 19.619 0.629l367.999-192.001c6.608-3.446 10.749-10.278 10.749-17.731v-624c0-6.65-3.306-12.864-8.819-16.582s-12.515-4.451-18.678-1.958l-368.001 148.848c-7.555 3.056-12.5 10.394-12.5 18.541v667.153c0 6.993 3.652 13.478 9.632 17.103zM212.004 735.008v-620.675l327.999-132.669v582.214l-327.999 171.129zM428.003 704.001c0 11.046 8.957 20 20 20h416c11.046 0 20-8.954 20-20v-672.001c0-11.046-8.954-20-20-20h-304c-11.043 0-20 8.954-20 20s8.957 20 20 20h284v632.001h-376v-44c0-11.047-8.954-20.001-20-20.001-11.043 0-20 8.954-20 20.001v64z" />
<glyph unicode="&#xe922;" glyph-name="download-file" data-tags="Download_File" d="M532 912c0 11.046-8.954 20-20 20s-20-8.954-20-20h40zM512 224l-13.514-14.742c7.645-7.011 19.382-7.011 27.027 0l-13.514 14.742zM909.514 561.258c8.144 7.462 8.694 20.115 1.229 28.256-7.462 8.144-20.115 8.694-28.256 1.229l27.027-29.485zM141.515 590.742c-8.142 7.466-20.794 6.915-28.258-1.229-7.464-8.141-6.914-20.794 1.228-28.256l27.029 29.485zM128 20c-11.046 0-20-8.954-20-20s8.954-20 20-20v40zM896-20c11.046 0 20 8.954 20 20s-8.954 20-20 20v-40zM492 912v-688h40v688h-40zM882.486 590.742l-384-352 27.027-29.485 384 352-27.027 29.485zM114.485 561.258l384.001-352 27.027 29.485-383.999 352-27.029-29.485zM128-20h768v40h-768v-40z" />
<glyph unicode="&#xe923;" glyph-name="duplicate" data-tags="Duplicate" d="M916 644c13.254 0 24-10.746 24-24v-544c0-13.254-10.746-24-24-24h-512c-13.254 0-24 10.746-24 24v544c0 13.254 10.746 24 24 24h512zM404 684c-35.347 0-64-28.654-64-64v-544c0-35.347 28.653-64 64-64h512c35.347 0 64 28.653 64 64v544c0 35.346-28.653 64-64 64h-512zM64 812c0 46.392 37.608 84 84 84h512c46.39 0 84-37.608 84-84v-96h-40v96c0 24.3-19.699 44-44 44h-512c-24.3 0-44-19.7-44-44v-544c0-24.301 19.7-44 44-44h144v-40h-144c-46.392 0-84 37.61-84 84v544z" />
<glyph unicode="&#xe924;" glyph-name="faq" data-tags="FAQ" d="M121.071 198.323l-56.343-169.030c-0.12-1.168-0.245-2.701-0.317-4.486-0.2-5.027 0.088-10.618 1.242-15.37 1.166-4.803 2.578-6.234 2.709-6.355 0 0 0.206-0.227 1.054-0.534 0.935-0.333 3.188-0.947 7.383-0.947 3.5 0 14.64 1.789 33.708 6.723 17.524 4.538 37.968 10.688 57.721 16.986 19.671 6.272 38.255 12.563 51.947 17.296 6.836 2.365 12.429 4.33 16.3 5.699l5.591 1.994 19.334 6.976 16.786-11.19c70.452-46.97 139.268-70.083 233.812-70.083 260.678 0 472 211.322 472 472s-211.322 472-472 472c-260.678 0-472-211.322-472-472 0-51.664 4.692-90.835 15.261-126.058 10.526-35.075 27.49-68.256 54.429-107.178l11.381-16.442zM256 12.8c0 0-141.916-51.2-179.2-51.2-65.116 0-51.2 76.8-51.2 76.8l51.2 153.6c-57.204 82.643-76.8 147.882-76.8 256 0 282.77 229.23 512 512 512s512-229.23 512-512c0-282.771-229.229-512-512-512-102.704 0-179.2 25.6-256 76.8zM511.997 684c-73.786 0-133.6-59.814-133.6-133.6 0-11.046-8.957-20-20-20-11.046 0-20 8.954-20 20 0 95.876 77.722 173.6 173.6 173.6 95.875 0 173.6-77.724 173.6-173.6 0-89.114-67.146-162.544-153.6-172.461v-57.939c0-11.046-8.957-20-20-20-11.046 0-20 8.954-20 20v76.8c0 11.046 8.954 20 20 20 73.786 0 133.6 59.814 133.6 133.6s-59.814 133.6-133.6 133.6zM563.19 192.010c0-28.278-22.922-51.2-51.2-51.2-28.275 0-51.2 22.922-51.2 51.2 0 28.275 22.925 51.2 51.2 51.2 28.278 0 51.2-22.925 51.2-51.2z" />
<glyph unicode="&#xe925;" glyph-name="flyers" data-tags="Flyers" d="M172 736c0 11.046 8.954 20 20 20h480c11.046 0 20-8.954 20-20v-672c0-11.046-8.954-20-20-20h-480c-11.046 0-20 8.954-20 20v672zM212 716v-632h440v632h-440zM410.605 869.177c2.858 10.669 13.827 17.001 24.496 14.142l463.645-124.233c10.669-2.859 16.998-13.825 14.141-24.495l-173.926-649.103c-2.858-10.669-13.827-17.002-24.496-14.141l-47.648 12.765c-10.669 2.861-16.998 13.827-14.141 24.496s13.824 17.002 24.496 14.144l28.33-7.594 163.571 610.467-425.008 113.88-28.109-104.915c-2.861-10.669-13.827-17.001-24.496-14.142s-17.002 13.826-14.144 24.495l33.29 124.233z" />
<glyph unicode="&#xe926;" glyph-name="free-proof" data-tags="Free-Proof" d="M67.070 948h709.023v-458.326h-40v418.326h-629.023v-695.162h-40v735.162zM776.093 305.117v-366.048h-435.254v40h395.254v326.048h40zM340.838-64l-276.838 276.838h276.838v-276.838zM300.837 32.57v140.269h-140.268l140.268-140.269zM617.674 252.838c-79.837 0-144.557 64.72-144.557 144.557s64.72 144.557 144.557 144.557c79.837 0 144.56-64.72 144.56-144.557s-64.723-144.557-144.56-144.557zM617.674 212.838c101.93 0 184.56 82.627 184.56 184.557s-82.63 184.557-184.56 184.557c-101.926 0-184.557-82.627-184.557-184.557s82.63-184.557 184.557-184.557zM159.349 581.952v184.56h40v-184.56h-40zM159.349 812.651v46.14h40v-46.14h-40zM248.558 815.721v40h184.559v-40h-184.559zM986.79 120.557l-230.698 138.419 20.579 34.301 230.698-138.419-20.579-34.301z" />
<glyph unicode="&#xe927;" glyph-name="french-fold" data-tags="French Fold" d="M124.003 864c0-11.046 8.954-20 20-20h604v-687.139l-100.979 37.866c-10.342 3.878-21.869-1.36-25.747-11.702s1.36-21.872 11.702-25.75l128-48c6.144-2.304 13.024-1.45 18.416 2.288s8.608 9.878 8.608 16.438v140h156c6.339 0 12.304 3.005 16.077 8.102 3.77 5.098 4.902 11.68 3.050 17.741l-176 576.001c-2.57 8.411-10.333 14.156-19.126 14.156h-624c-11.046 0-20-8.954-20-20zM788.003 730.104l128.976-422.104h-128.976v422.104zM132.684 864.491c4.827 3.312 10.863 4.344 16.516 2.822l416-112c7.77-2.092 13.53-8.637 14.618-16.61l96-704.002c0.963-7.066-1.91-14.112-7.539-18.49-5.632-4.378-13.168-5.427-19.779-2.752l-134.374 54.384-14.317-102.608c-0.854-6.118-4.486-11.498-9.843-14.576s-11.837-3.507-17.552-1.165l-410.939 168.534c-8.221 3.373-13.232 11.763-12.301 20.598l74.938 711.468c0.613 5.822 3.747 11.083 8.573 14.396zM519.21 108.934l112.314-45.453-68.179 499.984-44.134-454.531zM538.458 721.088l-377.022 101.506-70.912-673.247 373.23-153.066 14.24 102.067 60.464 622.739z" />
<glyph unicode="&#xe928;" glyph-name="gate-fold" data-tags="Gate Fold" d="M145.941 878.225c3.802 3.757 8.949 5.836 14.294 5.773l672.002-7.908c10.95-0.129 19.763-9.045 19.763-19.999v-728.092c0-11.046-8.954-20-20-20s-20 8.954-20 20v708.326l-632 7.437v-715.763c0-11.046-8.954-20-20-20s-20 8.954-20 20v736c0 5.345 2.14 10.468 5.941 14.225zM428 128c0 11.046 8.954 20 20 20h96c11.046 0 20-8.954 20-20s-8.954-20-20-20h-96c-11.046 0-20 8.954-20 20zM148.88 880.624c5.549 3.712 12.584 4.41 18.755 1.862l288-118.95c7.482-3.091 12.365-10.388 12.365-18.485v-713.051c0-6.355-3.018-12.33-8.134-16.099-5.114-3.77-11.715-4.886-17.782-3.005l-288.001 89.213c-8.374 2.592-14.082 10.336-14.082 19.104v742.787c0 6.676 3.331 12.912 8.88 16.624zM180 834.101v-698.146l248-76.822v672.539l-248 102.429zM843.52 864.35c-5.318 3.747-12.128 4.673-18.253 2.483l-288-102.95c-7.955-2.844-13.267-10.383-13.267-18.833v-706.263c0-6.352 3.018-12.33 8.134-16.099 5.114-3.77 11.715-4.883 17.782-3.005l288 89.213c8.374 2.592 14.083 10.339 14.083 19.104v720c0 6.505-3.165 12.604-8.48 16.35zM812 819.611v-676.869l-248-76.822v665.040l248 88.651z" />
<glyph unicode="&#xe929;" glyph-name="grid" data-tags="Grid" d="M32 864c0 35.346 28.654 64 64 64h124.631c35.346 0 64-28.654 64-64v-124.631c0-35.346-28.654-64-64-64h-124.632c-35.346 0-64 28.654-64 64v124.632zM385.683 864c0 35.346 28.656 64 64 64h124.634c35.344 0 64-28.654 64-64v-124.631c0-35.346-28.656-64-64-64h-124.634c-35.344 0-64 28.654-64 64v124.632zM739.37 864c0 35.346 28.653 64 64 64h124.63c35.347 0 64-28.654 64-64v-124.631c0-35.346-28.653-64-64-64h-124.63c-35.347 0-64 28.654-64 64v124.632zM32 510.317c0 35.344 28.654 64 64 64h124.631c35.346 0 64-28.656 64-64v-124.634c0-35.344-28.654-64-64-64h-124.632c-35.346 0-64 28.656-64 64v124.634zM385.683 510.317c0 35.344 28.656 64 64 64h124.634c35.344 0 64-28.656 64-64v-124.634c0-35.344-28.656-64-64-64h-124.634c-35.344 0-64 28.656-64 64v124.634zM739.37 510.317c0 35.344 28.653 64 64 64h124.63c35.347 0 64-28.656 64-64v-124.634c0-35.344-28.653-64-64-64h-124.63c-35.347 0-64 28.656-64 64v124.634zM32 156.63c0 35.347 28.654 64 64 64h124.631c35.346 0 64-28.653 64-64v-124.63c0-35.347-28.654-64-64-64h-124.632c-35.346 0-64 28.653-64 64v124.63zM385.683 156.63c0 35.347 28.656 64 64 64h124.634c35.344 0 64-28.653 64-64v-124.63c0-35.347-28.656-64-64-64h-124.634c-35.344 0-64 28.653-64 64v124.63zM739.37 156.63c0 35.347 28.653 64 64 64h124.63c35.347 0 64-28.653 64-64v-124.63c0-35.347-28.653-64-64-64h-124.63c-35.347 0-64 28.653-64 64v124.63z" />
<glyph unicode="&#xe97f;" glyph-name="half-fold" data-tags="Half Fold" d="M796.79 915.642c4.57-3.8 7.21-9.434 7.21-15.374v-676.268c0-8.176-4.979-15.533-12.573-18.57l-80-32c-10.256-4.102-21.894 0.886-25.997 11.142s0.886 21.894 11.142 25.997l67.427 26.973v638.687l-456-84.336v-597.759c0-11.046-8.954-20-20-20s-20 8.954-20 20v614.4c0 9.643 6.881 17.913 16.363 19.667l495.999 91.733c5.843 1.081 11.862-0.492 16.429-4.292zM276.306 824.759c5.215 3.759 11.92 4.782 18.019 2.749l409.599-136.533c8.17-2.722 13.677-10.365 13.677-18.974v-708.266c0-6.16-2.838-11.974-7.693-15.763-4.854-3.792-11.184-5.133-17.158-3.638l-409.599 102.4c-8.903 2.224-15.149 10.224-15.149 19.402v742.4c0 6.429 3.091 12.466 8.306 16.225zM308 780.786v-699.035l369.6-92.4v668.235l-369.6 123.2z" />
<glyph unicode="&#xe980;" glyph-name="hamburger" data-tags="Hamburger_Menu" d="M140 704c0 11.046 8.954 20 20 20h704c11.046 0 20-8.954 20-20s-8.954-20-20-20h-704c-11.046 0-20 8.954-20 20zM140 448c0 11.046 8.954 20 20 20h704c11.046 0 20-8.954 20-20s-8.954-20-20-20h-704c-11.046 0-20 8.954-20 20zM140 192c0 11.046 8.954 20 20 20h704c11.046 0 20-8.954 20-20s-8.954-20-20-20h-704c-11.046 0-20 8.954-20 20z" />
<glyph unicode="&#xe981;" glyph-name="left-of-copy" data-tags="Left of copy" d="M301.36 399.613c25.632 51.264 42.64 124.886 42.64 208.387 0 83.502-17.008 157.122-42.64 208.386-26.828 53.656-56.49 71.614-77.36 71.614s-50.532-17.958-77.36-71.614c-25.632-51.264-42.64-124.883-42.64-208.386 0-83.501 17.008-157.123 42.64-208.387 26.828-53.654 56.49-71.613 77.36-71.613s50.532 17.958 77.36 71.613zM384 608c0-176.73-71.635-320-160-320s-160 143.27-160 320c0 176.731 71.635 320 160 320s160-143.269 160-320zM216 499.152c0.757 1.667 1.533 3.504 2.318 5.523 7.922 20.371 13.682 51.232 13.682 87.325s-5.76 66.955-13.682 87.325c-0.785 2.018-1.561 3.855-2.318 5.524-0.757-1.669-1.533-3.507-2.318-5.524-7.922-20.371-13.682-51.233-13.682-87.325s5.76-66.954 13.682-87.325c0.785-2.019 1.561-3.856 2.318-5.523zM272 592c0-79.53-25.072-144-56-144s-56 64.47-56 144c0 79.529 25.072 144 56 144s56-64.471 56-144zM672 932h-448v-40h447.434c44.566-2.591 111.987-20.677 167.926-66.299 55.36-45.15 100.64-118.134 100.64-233.701v-588h-552v588h-40v-608c0-11.046 8.954-20 20-20h592c11.046 0 20 8.954 20 20v608c0 127.633-50.72 211.982-115.36 264.699-63.834 52.060-140.093 72.413-191.53 75.27-0.371 0.021-0.739 0.031-1.11 0.031zM352 324h-112v-40h112v40zM944 532h-560v-40h560v40zM713.971 288.218v-98.624l52.749-18.749v-59.814l-256 101.626v52.125l256 102.189v-59.814l-52.749-18.938zM671.245 204.781v68.25l-95.824-34.31 95.824-33.939zM683.251 785.25v-98.625l52.749-18.75v-59.811l-256 101.623v52.125l256 102.188v-59.812l-52.749-18.938zM640.528 701.812v68.25l-95.824-34.312 95.824-33.938z" />
<glyph unicode="&#xe982;" glyph-name="like" data-tags="Like" d="M616.272 800.578c-4.694-5.745-9.235-18.703-0.442-47.431l0.877-2.861v-2.992c0-49.111-13.283-86.889-35.040-117.293-21.434-29.955-50.282-51.59-79.386-69.91-12.806-8.064-26.016-15.693-38.806-23.078-1.747-1.008-3.485-2.013-5.21-3.011-14.55-8.416-28.502-16.605-41.619-25.322-26.266-17.453-47.789-36.138-61.936-60.272l-5.795-9.885h-288.684c-11.046 0-20 8.954-20 20s8.954 20 20 20h266.232c18.17 26.637 42.618 46.576 68.045 63.472 14.256 9.472 29.171 18.211 43.725 26.63 1.76 1.018 3.51 2.029 5.258 3.037 12.861 7.43 25.366 14.653 37.482 22.278 27.526 17.328 51.216 35.654 68.166 59.338 16.24 22.697 27.056 51.408 27.549 91.168-9.482 32.879-7.952 61.166 8.605 81.437 16.563 20.279 43.107 26.118 67.885 26.118 18.118 0 33.258-8.797 44.861-19.813 11.59-11.004 21.053-25.461 28.48-40.35 14.723-29.512 23.667-65.283 23.667-90.747 0-22.409-0.906-46.894-8.070-74.85-4.995-19.485-12.915-40.234-25.245-63.011h141.805c42.742 0 80.138-9.603 107.53-27.328 27.68-17.91 45.798-44.819 45.798-77.379 0-35.386-5.43-60.835-15.814-78.080-7.037-11.69-16.147-19.206-26.058-23.174 5.744-35.491 6.992-77.101 2.336-117.693-7.069-61.59-28.413-126.576-74.595-163.702-44.848-36.054-115.13-50.531-170.538-56.643-28.339-3.126-54.045-4.182-72.659-4.458-9.322-0.138-16.896-0.083-22.176 0.010-2.64 0.048-4.707 0.102-6.134 0.147l-1.818 0.061c-6.842-0.003-14.848-0.138-23.792-0.288-32.531-0.547-77.466-1.302-123.866 3.206-57.133 5.552-120.134 19.293-169.021 53.552h-247.637c-11.046 0-20 8.957-20 20 0 11.046 8.954 20 20 20h260.786l5.334-4c40.749-30.56 97.475-44.208 154.406-49.741 43.846-4.259 85.488-3.571 117.946-3.034 9.613 0.16 18.416 0.304 26.237 0.304h0.435l0.506-0.022 0.33-0.013 1.398-0.045c1.254-0.042 3.139-0.090 5.587-0.134 4.899-0.083 12.042-0.138 20.886-0.006 17.709 0.262 42.102 1.267 68.864 4.218 54.79 6.045 114.71 19.805 149.862 48.064 33.818 27.187 53.261 79.066 59.917 137.085 6.598 57.491-0.035 115.341-12.778 149.325-3.878 10.342 1.36 21.872 11.702 25.75s21.872-1.363 25.75-11.706c1.046-2.79 2.054-5.69 3.018-8.685 0.493 0.662 0.992 1.408 1.501 2.253 4.918 8.166 10.083 25.069 10.083 57.45 0 16.067-8.547 31.514-27.53 43.798-19.274 12.47-48.544 20.909-85.798 20.909h-214.634l20.73 31.094c21.51 32.266 32.682 58.771 38.595 81.85 5.926 23.126 6.819 43.689 6.819 64.917 0 18.173-6.97 47.856-19.459 72.891-6.179 12.384-13.146 22.472-20.227 29.196-7.072 6.712-12.851 8.823-17.322 8.823-20.403 0-31.718-5.070-36.906-11.422zM72 333.814h145.884v-145.882h-145.884v145.882zM64 373.814c-17.673 0-32-14.326-32-32v-161.882c0-17.674 14.327-32 32-32h161.884c17.673 0 32 14.326 32 32v161.882c0 17.674-14.327 32-32 32h-161.884zM88.463 486.765h112.942v-112.944h-112.942v112.944zM88.463 147.92h112.942v-56.474h-112.942v56.474z" />
<glyph unicode="&#xe983;" glyph-name="list" data-tags="List" d="M32 96c0 44.182 35.817 80 80 80s80-35.818 80-80c0-44.182-35.817-80-80-80s-80 35.818-80 80zM32 456c0 44.182 35.817 80 80 80s80-35.818 80-80c0-44.182-35.817-80-80-80s-80 35.818-80 80zM32 816c0 44.183 35.817 80 80 80s80-35.817 80-80c0-44.183-35.817-80-80-80s-80 35.817-80 80zM272 96c0 44.182 35.817 80 80 80h560c44.182 0 80-35.818 80-80s-35.818-80-80-80h-560c-44.183 0-80 35.818-80 80zM272 456c0 44.182 35.817 80 80 80h560c44.182 0 80-35.818 80-80s-35.818-80-80-80h-560c-44.183 0-80 35.818-80 80zM272 816c0 44.183 35.817 80 80 80h560c44.182 0 80-35.817 80-80s-35.818-80-80-80h-560c-44.183 0-80 35.817-80 80z" />
<glyph unicode="&#xe984;" glyph-name="live-chat" data-tags="Live_Chat" d="M194.696 741.084c-76.358-59.503-123.493-140.409-123.493-228.611 0-112.48 54.497-213.862 141.725-283.142 6.513-5.171 9.145-13.837 6.61-21.757l-55.028-171.923 174.853 116.842c4.957 3.312 11.133 4.24 16.845 2.531 11.341-3.392 21.107-6.938 29.901-10.237 1.949-0.733 3.821-1.44 5.642-2.128 6.573-2.486 12.442-4.707 18.467-6.72 14.659-4.899 29.392-8.269 50.586-8.269 11.046 0 20-8.954 20-20 0-11.043-8.954-20-20-20-26.275 0-45.322 4.333-63.267 10.33-6.838 2.288-13.654 4.867-20.333 7.395-1.728 0.653-3.443 1.302-5.149 1.942-5.894 2.211-11.933 4.419-18.438 6.57l-214.501-143.334c-7.071-4.726-16.356-4.461-23.148 0.656s-9.605 13.971-7.012 22.070l68.344 213.526c-89.533 75.776-146.096 184.467-146.096 305.648 0 103.328 55.265 194.984 138.907 260.163s196.805 104.965 316.293 104.965c248.278 0 427.434-158.949 454.928-323.911 1.814-10.896-5.546-21.2-16.442-23.018-10.893-1.814-21.2 5.546-23.014 16.442-23.706 142.236-183.043 290.487-415.472 290.487-110.912 0-215.349-37.014-291.707-96.516zM716.803 530.4c-132.371 0-236-96.131-236-210.4 0-114.272 103.629-210.4 236-210.4 22.093 0 43.443 2.704 63.67 7.747 5.994 1.494 12.339 0.138 17.197-3.68l96.582-75.885-24.445 107.549c-1.677 7.382 0.96 15.082 6.81 19.888 47.213 38.774 76.186 93.99 76.186 154.781 0 114.269-103.626 210.4-236 210.4zM440.803 320c0 140.221 125.603 250.4 276 250.4s276-110.179 276-250.4c0-69.763-31.398-132.464-81.322-177.533l34.278-150.835c1.878-8.259-1.651-16.806-8.806-21.334-7.158-4.528-16.39-4.058-23.053 1.174l-133.411 104.826c-20.467-4.384-41.792-6.698-63.686-6.698-150.397 0-276 110.176-276 250.4z" />
<glyph unicode="&#xe985;" d="M527.997 928c17.674 0 32-14.327 32-32v-256c0-17.674-14.326-32-32-32s-32 14.326-32 32v256c0 17.673 14.326 32 32 32z" />
<glyph unicode="&#xe986;" d="M527.997 288c17.674 0 32-14.326 32-32v-256c0-17.674-14.326-32-32-32s-32 14.326-32 32v256c0 17.674 14.326 32 32 32z" />
<glyph unicode="&#xe987;" d="M188.586 787.411c12.497 12.497 32.758 12.497 45.255 0l181.020-181.021c12.496-12.496 12.496-32.755 0-45.254-12.496-12.496-32.758-12.496-45.254 0l-181.020 181.020c-12.497 12.497-12.497 32.758 0 45.255z" />
<glyph unicode="&#xe988;" d="M641.133 334.864c12.499 12.496 32.758 12.496 45.258 0l181.018-181.021c12.496-12.496 12.496-32.758 0-45.254s-32.758-12.496-45.254 0l-181.021 181.021c-12.496 12.496-12.496 32.755 0 45.254z" />
<glyph unicode="&#xe989;" d="M48 447.997c0 17.674 14.327 32 32 32h256c17.674 0 32-14.326 32-32 0-17.67-14.326-32-32-32h-256c-17.673 0-32 14.33-32 32z" />
<glyph unicode="&#xe98a;" d="M687.997 447.997c0 17.674 14.326 32 32 32h256c17.674 0 32-14.326 32-32 0-17.67-14.326-32-32-32h-256c-17.674 0-32 14.33-32 32z" />
<glyph unicode="&#xe98b;" d="M188.586 108.589c-12.497 12.496-12.497 32.758 0 45.254l181.020 181.021c12.496 12.496 32.758 12.496 45.254 0 12.496-12.499 12.496-32.758 0-45.254l-181.020-181.021c-12.497-12.496-32.758-12.496-45.255 0z" />
<glyph unicode="&#xe98c;" d="M641.139 561.136c-12.499 12.496-12.499 32.758 0 45.254l181.018 181.019c12.496 12.497 32.758 12.497 45.254 0 12.499-12.497 12.499-32.758 0-45.255l-181.018-181.019c-12.496-12.496-32.758-12.496-45.254 0z" />
<glyph unicode="&#xe98d;" glyph-name="log-in" data-tags="Log_In" d="M492 928c0 11.046 8.954 20 20 20h373.334c69.955 0 126.666-56.711 126.666-126.667v-746.668c0-69.955-56.71-126.666-126.666-126.666h-373.334c-11.046 0-20 8.954-20 20s8.954 20 20 20h373.334c47.862 0 86.666 38.803 86.666 86.666v746.668c0 47.865-38.803 86.667-86.666 86.667h-373.334c-11.046 0-20 8.954-20 20zM12 474.675c0 11.046 8.954 20 20 20h666.666c11.046 0 20-8.954 20-20 0-11.043-8.954-20-20-20h-666.666c-11.046 0-20 8.957-20 20zM496.816 647.685c7.187 8.387 19.814 9.358 28.198 2.169l186.669-160.001c4.432-3.798 6.982-9.338 6.982-15.178 0-5.837-2.55-11.392-6.982-15.19l-186.669-160c-8.384-7.19-21.011-6.218-28.198 2.17-7.19 8.384-6.218 21.011 2.17 28.198l168.95 144.816-168.95 144.816c-8.387 7.187-9.36 19.814-2.17 28.2z" />
<glyph unicode="&#xe98e;" glyph-name="mailing-box" data-tags="Mailing Box" d="M64.281 356.691l534.33 58.595 205.651 354.418-588.515 14.507-151.467-427.52zM85.046 220.586l518.4 76.659c1.421 0.141 2.845 0 4.266-0.429l351.29-135.821c7.68-2.989 6.826-14.224-1.28-15.93l-611.84-134.115c-2.416-0.57-4.835 0-6.826 1.421l-257.85 193.28c-5.973 4.554-3.556 13.939 3.84 14.934zM50.781 214.893l552.819 82.915-3.984 117.478-548.835-60.304v-140.090zM600.33 413.011l3.84-114.486 379.446-148.054 8.25 146.346c0.141 1.709-0.995 3.13-2.56 3.699l-388.976 112.496zM49.781 213.76l-1.422 141.37c0 1.562 1.991 2.416 3.413 1.562l282.595-167.11c0 0-1.99-169.811-2.275-184.176 0.141-0.429-282.311 208.355-282.311 208.355zM337.933 4.266l643.555 143.645c2.131 0.426 3.696 2.275 3.84 4.55l7.821 141.939c0.144 3.126-2.56 5.686-5.69 5.12l-648.531-111.36c-2.275-0.429-3.984-2.419-4.125-4.694l-2.845-174.221c-0.144-3.274 2.845-5.69 5.974-4.979zM251.322 705.846l-56.747 21.333-127.716-363.378 51.484-30.72 129.991 341.902c0 0.142 6.969 18.916 2.987 30.862zM848.925 695.325c2.131-18.916 55.466-56.89 90.451 2.844 34.989 59.733-6.256 133.689-6.256 133.689l-128.854-64.853zM805.549 770.13l34.134-46.364c0 0 15.216-20.764 6.685-41.529-8.534-20.764-185.318-297.814-185.318-297.814s-13.366-15.786-28.016-5.546c-14.65 10.24-33.565 36.41-33.565 36.41l205.654 354.986zM281.604 855.18l647.964-21.618-124.16-63.289-609.564 15.502zM278.898 856.176c0.996 0.853 2.844 0.142 2.702-0.996-10.098-172.658-61.44-192.711-75.947-188.444s-11.662 30.436-11.662 30.436v84.907c0 1.422 0.711 2.702 1.849 3.698l83.058 70.4zM66.55 363.52l288.285-170.099-19.2-3.13-283.307 166.97 14.222 6.259z" />
<glyph unicode="&#xe98f;" glyph-name="mailing-services" data-tags="Mailing_Services" d="M506.454 499.83c11.424 126.758 117.958 248.705 247.693 248.705s236.269-99.336 247.693-226.097l1.014-22.608v-429.584h-497.414v429.584h1.014zM959.533 519.542c-9.898 104.675-98.096 186.6-205.386 186.6-102.816 0-195.536-99.867-205.472-210.117l-0.842-9.354v-374.035h412.627v386.243l-0.928 20.662zM597.293 183.293c0 11.706 9.488 21.197 21.197 21.197h271.315c11.706 0 21.197-9.491 21.197-21.197s-9.491-21.197-21.197-21.197h-271.315c-11.709 0-21.197 9.491-21.197 21.197zM618.49 114.051c11.706 0 21.197-9.491 21.197-21.197v-135.658c0-11.706-9.491-21.197-21.197-21.197-11.709 0-21.197 9.491-21.197 21.197v135.658c0 11.706 9.488 21.197 21.197 21.197zM776.755 114.051c11.709 0 21.197-9.491 21.197-21.197v-135.658c0-11.706-9.488-21.197-21.197-21.197-11.706 0-21.194 9.491-21.194 21.197v135.658c0 11.706 9.488 21.197 21.194 21.197zM301.953 704.729c-118.667 0-216.134-90.867-226.582-206.803l-0.9-9.99 0.883-373.885h452.697v-42.394h-452.597l0.003-1.363-42.393-0.099-1.064 450.832h3.59c20.938 128.238 132.212 226.095 266.364 226.095h474.802v-42.393h-474.802zM190.318 906.804c0 11.707 9.49 21.196 21.197 21.196h203.487c11.706 0 21.197-9.49 21.197-21.196v-429.584c0-11.706-9.491-21.197-21.197-21.197s-21.197 9.491-21.197 21.197v317.949h-182.29c-11.707 0-21.197 9.49-21.197 21.197v90.439zM393.805 837.561v48.045h-161.094v-48.045h161.094z" />
<glyph unicode="&#xe991;" glyph-name="no-fold" data-tags="No Fold" d="M140 896c0 11.046 8.954 20 20 20h672c11.046 0 20-8.954 20-20v-864c0-11.046-8.954-20-20-20h-672c-11.046 0-20 8.954-20 20v864zM180 876v-824h632v824h-632z" />
<glyph unicode="&#xe992;" glyph-name="not-important" data-tags="Not Important" d="M301.36 399.613c25.632 51.264 42.64 124.886 42.64 208.387 0 83.502-17.008 157.122-42.64 208.386-26.828 53.656-56.49 71.614-77.36 71.614s-50.532-17.958-77.36-71.614c-25.632-51.264-42.64-124.883-42.64-208.386 0-83.501 17.008-157.123 42.64-208.387 26.828-53.654 56.49-71.613 77.36-71.613s50.532 17.958 77.36 71.613zM384 608c0-176.73-71.635-320-160-320s-160 143.27-160 320c0 176.731 71.635 320 160 320s160-143.269 160-320zM216 499.152c0.757 1.667 1.533 3.504 2.318 5.523 7.922 20.371 13.682 51.232 13.682 87.325s-5.76 66.955-13.682 87.325c-0.785 2.018-1.561 3.855-2.318 5.524-0.757-1.669-1.533-3.507-2.318-5.524-7.922-20.371-13.682-51.233-13.682-87.325s5.76-66.954 13.682-87.325c0.785-2.019 1.561-3.856 2.318-5.523zM272 592c0-79.53-25.072-144-56-144s-56 64.47-56 144c0 79.529 25.072 144 56 144s56-64.471 56-144zM672 932h-448v-40h447.434c44.566-2.591 111.987-20.677 167.926-66.299 55.36-45.15 100.64-118.134 100.64-233.701v-588h-552v588h-40v-608c0-11.046 8.954-20 20-20h592c11.046 0 20 8.954 20 20v608c0 127.633-50.72 211.982-115.36 264.699-63.834 52.060-140.093 72.413-191.53 75.27-0.371 0.021-0.739 0.031-1.11 0.031zM352 324h-112v-40h112v40zM944 532h-560v-40h560v40z" />
<glyph unicode="&#xe993;" glyph-name="order-now" data-tags="Order Now" d="M12 928c0 11.046 8.954 20 20 20h128c1.317 0 2.631-0.13 3.922-0.388 14.753-2.951 32.813-8.211 48.331-23.852 15.331-15.453 25.833-38.617 31.475-72.471 11.304-67.824 35.421-173.675 60.301-282.869 8.864-38.906 17.824-78.234 26.339-116.419h453.632c1.318 0 2.63-0.131 3.923-0.387 18.4-3.68 71.475 1.152 105.565 68.093l54.765 164.294h-84.253c-11.046 0-20 8.954-20 20s8.954 20 20 20h112c6.429 0 12.467-3.091 16.224-8.306 3.76-5.215 4.784-11.92 2.749-18.019l-64-191.999c-0.298-0.899-0.662-1.776-1.085-2.621-41.898-83.798-112.16-97.126-147.712-91.056h-442.915c5.898-26.374 11.398-50.576 16.182-71.309 4.406-17.366 22.883-48.691 60.557-48.691h448c11.046 0 20-8.954 20-20s-8.954-20-20-20h-448c-64.611 0-93.069 53.818-99.403 79.149l-0.088 0.352c-6.259 27.123-13.732 60.131-21.713 96.176-9.339 42.173-19.416 86.403-29.423 130.323-25.014 109.785-49.59 217.651-61.101 286.712-4.879 29.275-13.044 43.445-20.416 50.876-6.802 6.856-14.943 10.068-25.9 12.412h-125.956c-11.046 0-20 8.954-20 20zM448 40c-30.928 0-56 25.072-56 56s25.072 56 56 56c30.928 0 56-25.072 56-56s-25.072-56-56-56zM448 0c53.021 0 96 42.979 96 96s-42.979 96-96 96c-53.021 0-96-42.979-96-96s42.979-96 96-96zM800 40c-30.928 0-56 25.072-56 56s25.072 56 56 56c30.928 0 56-25.072 56-56s-25.072-56-56-56zM800 0c53.021 0 96 42.979 96 96s-42.979 96-96 96c-53.021 0-96-42.979-96-96s42.979-96 96-96zM433.859 654.142c7.808 7.811 20.474 7.811 28.282 0l129.859-129.857 129.859 129.857c7.808 7.811 20.474 7.811 28.282 0 7.811-7.811 7.811-20.475 0-28.283l-144-144c-7.808-7.811-20.474-7.811-28.282 0l-144 144c-7.811 7.808-7.811 20.472 0 28.283zM592 884c11.046 0 20-8.954 20-20v-368c0-11.046-8.954-20-20-20s-20 8.954-20 20v368c0 11.046 8.954 20 20 20z" />
<glyph unicode="&#xe994;" glyph-name="oval" data-tags="Oval" d="M850.038 208.47c-85.088-63.818-204.47-104.47-338.038-104.47s-252.95 40.653-338.039 104.47c-85.077 63.808-133.961 148.906-133.961 239.53s48.884 175.722 133.961 239.529c85.089 63.817 204.471 104.471 338.039 104.471s252.95-40.654 338.038-104.471c85.078-63.807 133.962-148.905 133.962-239.529s-48.883-175.722-133.962-239.53zM512 64c282.771 0 512 171.923 512 384s-229.229 384-512 384c-282.77 0-512-171.923-512-384s229.23-384 512-384z" />
<glyph unicode="&#xe995;" glyph-name="printing" data-tags="Printing" d="M192 396.256c-48.601 0-88 39.398-88 88s39.399 88 88 88c48.601 0 88-39.398 88-88s-39.399-88-88-88zM192 356.256c70.692 0 128 57.309 128 128 0 70.694-57.308 128-128 128s-128-57.306-128-128c0-70.691 57.308-128 128-128zM192 140.256c-48.601 0-88 39.398-88 88s39.399 88 88 88c48.601 0 88-39.398 88-88s-39.399-88-88-88zM192 100.256c70.692 0 128 57.309 128 128 0 70.694-57.308 128-128 128s-128-57.306-128-128c0-70.691 57.308-128 128-128zM556.653 799.191c-2.797 10.685 3.597 21.616 14.282 24.413 66.122 17.312 137.53-13.861 155.773-83.533 8.109-30.976 8.87-58.696-2.771-84.971-11.357-25.632-33.226-46.848-63.491-67.968-9.059-6.323-21.526-4.102-27.846 4.954-6.32 9.059-4.102 21.526 4.957 27.85 28.093 19.603 42.854 35.671 49.811 51.37 6.669 15.055 7.43 32.709 0.643 58.635-11.552 44.13-57.77 67.844-106.944 54.968-10.685-2.798-21.616 3.596-24.413 14.282zM593.888 813.201c4.941-9.88 0.934-21.893-8.944-26.833l-448-224c-9.88-4.941-21.893-0.934-26.833 8.944s-0.935 21.894 8.944 26.832l448 224.001c9.878 4.94 21.891 0.935 26.832-8.944zM417.482 221.968c5.366-9.654 1.888-21.83-7.77-27.194l-143.999-80c-9.656-5.366-21.832-1.885-27.196 7.77s-1.885 21.83 7.77 27.197l144.001 80c9.654 5.363 21.83 1.885 27.194-7.773zM662.589 629.904c2.896 1.546 6.128 2.352 9.411 2.352 93.226 0 157.869-31.085 209.264-76.627 40.080-35.514 72.374-80.294 103.597-123.59 7.763-10.768 15.462-21.44 23.197-31.859 3.302-4.448 4.611-10.067 3.616-15.517s-4.205-10.24-8.867-13.235l-480-308.256c-4.55-2.922-10.093-3.878-15.36-2.646-5.27 1.232-9.814 4.547-12.595 9.184-45.53 75.878-60.774 91.933-134.752 169.824-2.15 2.262-4.352 4.579-6.602 6.954-79.405 83.629-124.303 97.184-157.365 90.202-9.746-2.058-19.52 3.37-22.926 12.73s0.594 19.798 9.382 24.486l480.001 256zM676.941 592.224l-418.562-223.232c36.254-14.090 76.338-44.634 124.124-94.963 2.218-2.336 4.387-4.621 6.512-6.854 68.902-72.547 89.242-93.965 129.437-159.264l444.829 285.674c-4.109 5.648-8.163 11.264-12.186 16.835-30.954 42.864-59.93 82.992-96.358 115.274-43.712 38.73-97.75 65.475-177.795 66.531zM727.77 498.013l-288-160-15.539 27.974 288 160 15.539-27.974zM737.482 521.712c5.366-9.654 1.888-21.83-7.77-27.194l-288-160c-9.654-5.366-21.83-1.888-27.194 7.77-5.366 9.654-1.888 21.83 7.77 27.194l288 160c9.654 5.366 21.83 1.888 27.194-7.77zM817.482 425.712c5.366-9.654 1.888-21.83-7.77-27.194l-288-160c-9.654-5.366-21.83-1.888-27.194 7.77-5.366 9.654-1.888 21.83 7.77 27.194l288 160c9.654 5.366 21.83 1.888 27.194-7.77z" />
<glyph unicode="&#xe996;" glyph-name="best-seller" data-tags="Prod_Best_Seller" d="M532.797 916.474c-180.294 0-326.449-146.156-326.449-326.448s146.155-326.448 326.449-326.448c180.291 0 326.448 146.157 326.448 326.448 0 41.92-7.891 81.943-22.25 118.705-4.371 11.196 1.162 23.817 12.355 28.189 11.197 4.372 23.818-1.159 28.192-12.355 16.294-41.727 25.229-87.115 25.229-134.539 0-204.333-165.645-369.974-369.974-369.974-204.333 0-369.976 165.642-369.976 369.974s165.643 369.974 369.976 369.974c12.019 0 21.763-9.744 21.763-21.763s-9.744-21.763-21.763-21.763zM688.064 902.55c6.016 10.404 19.331 13.959 29.734 7.941 17.811-10.302 34.678-22.044 50.445-35.066 18.387-15.187 35.283-32.116 50.432-50.536 7.635-9.283 6.301-22.998-2.982-30.633s-22.998-6.299-30.634 2.985c-13.376 16.265-28.298 31.214-44.534 44.624-13.92 11.497-28.81 21.861-44.522 30.95-10.403 6.018-13.958 19.332-7.939 29.736zM480.026 671.363l44.49 136.93c2.608 8.020 13.955 8.020 16.56 0l44.49-136.93c1.168-3.587 4.509-6.015 8.282-6.015h143.974c8.435 0 11.939-10.791 5.117-15.748l-116.48-84.627c-3.050-2.218-4.326-6.147-3.162-9.734l44.493-136.928c2.605-8.019-6.576-14.691-13.398-9.734l-116.477 84.627c-3.053 2.218-7.184 2.218-10.234 0l-116.48-84.627c-6.822-4.957-16.003 1.715-13.395 9.734l44.49 136.928c1.165 3.587-0.112 7.517-3.162 9.734l-116.48 84.627c-6.822 4.957-3.316 15.748 5.117 15.748h143.978c3.77 0 7.114 2.428 8.278 6.015zM619.146 708.874l-36.675 112.869c-15.635 48.121-83.715 48.122-99.35 0l-36.672-112.869h-118.678c-50.598 0-71.636-64.747-30.701-94.487l96.013-69.757-36.675-112.87c-15.635-48.122 39.443-88.138 80.378-58.397l96.013 69.757 96.010-69.757c40.934-29.741 96.013 10.275 80.378 58.397l-36.672 112.87 96.010 69.757c40.934 29.74 19.898 94.487-30.701 94.487h-118.675zM473.107 261.168c10.688-5.498 14.896-18.618 9.398-29.306l-125.354-243.75c-3.99-7.757-12.227-12.381-20.928-11.75s-16.186 6.394-19.013 14.646l-35.969 104.909-128.485-17.846c-8.665-1.203-17.208 2.899-21.687 10.413s-4.025 16.979 1.155 24.032l104.463 142.186c7.116 9.686 20.738 11.77 30.424 4.653s11.77-20.739 4.653-30.426l-73.95-100.653 95.203 13.222c10.317 1.434 20.203-4.646 23.581-14.499l25.212-73.539 101.987 198.307c5.498 10.691 18.621 14.899 29.309 9.402zM626.538 144.899c10.022 6.63 23.526 3.882 30.157-6.144l64.8-97.939 21.51 73.2c2.72 9.264 11.222 15.629 20.88 15.629h81.882l-131.958 131.571c-8.509 8.486-8.531 22.266-0.045 30.778s22.269 8.531 30.778 0.045l169.242-168.746c6.24-6.221 8.112-15.584 4.749-23.725-3.366-8.141-11.306-13.45-20.115-13.45h-118.243l-30.115-102.49c-2.387-8.125-9.27-14.125-17.645-15.386-8.371-1.261-16.717 2.451-21.389 9.514l-90.627 136.982c-6.634 10.022-3.885 23.526 6.141 30.16z" />
<glyph unicode="&#xe997;" glyph-name="business-essentials" data-tags="Prod_Business_Essentials_32" d="M40 664h944v-560h-944v560zM32 704c-17.673 0-32-14.327-32-32v-576c0-17.674 14.327-32 32-32h960c17.674 0 32 14.326 32 32v576c0 17.673-14.326 32-32 32h-960zM528 844c-86.157 0-156-69.844-156-156h-40c0 108.248 87.754 196 196 196s196-87.752 196-196h-40c0 86.156-69.843 156-156 156zM458.506 412.768l-448 128 10.989 38.464 448-128-10.989-38.464zM1013.494 540.768l-448-128c-10.621-3.034-21.69 3.117-24.726 13.738-3.034 10.621 3.117 21.69 13.738 24.726l448 128 10.989-38.464zM488 440h48v-80h-48v80zM464 480c-8.835 0-16-7.165-16-16v-128c0-8.835 7.165-16 16-16h96c8.835 0 16 7.165 16 16v128c0 8.835-7.165 16-16 16h-96z" />
<glyph unicode="&#xe998;" glyph-name="custom-quote" data-tags="Prod_Custom_Quote" d="M744.314 462.176c11.149-3.152 21.77-7.587 31.696-13.142l26.413-14.781 46.394 46.394 15.84-15.84-46.394-46.394 14.778-26.413c5.552-9.923 9.984-20.541 13.136-31.686l8.234-29.114h65.59v-22.4h-65.59l-8.234-29.114c-3.152-11.146-7.584-21.763-13.136-31.686l-14.778-26.413 46.403-46.403-15.84-15.84-46.403 46.403-26.413-14.781c-9.926-5.555-20.547-9.99-31.696-13.142l-29.114-8.234v-65.59h-22.4v65.59l-29.114 8.234c-11.149 3.152-21.77 7.587-31.696 13.142l-26.413 14.781-46.394-46.397-15.84 15.84 46.397 46.397-14.781 26.413c-5.552 9.923-9.984 20.541-13.136 31.686l-8.234 29.114h-65.59v22.4h65.59l8.234 29.114c3.152 11.149 7.587 21.77 13.142 31.696l14.781 26.413-46.394 46.394 15.84 15.84 46.394-46.394 26.413 14.778c9.923 5.552 20.541 9.984 31.686 13.136l29.114 8.234v65.59h22.4v-65.59l29.114-8.234zM755.2 500.666v58.269c0 9.424-7.642 17.066-17.066 17.066h-68.269c-9.424 0-17.066-7.642-17.066-17.066v-58.269c-14.198-4.016-27.715-9.661-40.33-16.72l-41.21 41.21c-6.666 6.666-17.472 6.666-24.138 0l-48.272-48.272c-6.662-6.662-6.662-17.469 0-24.134l41.21-41.206c-7.062-12.621-12.71-26.141-16.726-40.342h-58.269c-9.424 0-17.066-7.642-17.066-17.066v-68.269c0-9.424 7.642-17.066 17.066-17.066h58.269c4.016-14.198 9.661-27.715 16.72-40.333l-41.21-41.21c-6.666-6.662-6.666-17.469 0-24.134l48.272-48.272c6.662-6.666 17.469-6.666 24.134 0l41.206 41.206c12.621-7.059 26.141-12.707 40.342-16.723v-58.269c0-9.424 7.642-17.066 17.066-17.066h68.269c9.424 0 17.066 7.642 17.066 17.066v58.269c14.202 4.016 27.722 9.664 40.342 16.726l41.216-41.216c6.666-6.666 17.469-6.666 24.134 0l48.272 48.272c6.666 6.662 6.666 17.469 0 24.134l-41.219 41.219c7.059 12.614 12.704 26.131 16.72 40.33h58.269c9.424 0 17.066 7.642 17.066 17.066v68.269c0 9.424-7.642 17.066-17.066 17.066h-58.269c-4.016 14.198-9.661 27.715-16.72 40.33l41.21 41.21c6.666 6.666 6.666 17.472 0 24.138l-48.272 48.272c-6.662 6.662-17.469 6.662-24.134 0l-41.206-41.21c-12.621 7.062-26.141 12.71-40.342 16.726zM829.334 320c0 69.219-56.115 125.334-125.334 125.334s-125.334-56.115-125.334-125.334c0-69.219 56.115-125.334 125.334-125.334s125.334 56.115 125.334 125.334zM789.334 320c0-47.13-38.205-85.334-85.334-85.334s-85.334 38.205-85.334 85.334c0 47.13 38.205 85.334 85.334 85.334s85.334-38.205 85.334-85.334zM337.859 910.142c3.75 3.751 8.835 5.858 14.141 5.858h448c11.046 0 20-8.954 20-20v-256c0-11.046-8.954-20-20-20s-20 8.954-20 20v236h-408v-172c0-11.046-8.954-20-20-20h-172v-664h396c11.046 0 20-8.954 20-20s-8.954-20-20-20h-416c-11.046 0-20 8.954-20 20v704c0 5.304 2.107 10.391 5.858 14.142l192.001 192zM208.284 724h123.716v123.716l-123.716-123.716z" />
<glyph unicode="&#xe999;" glyph-name="calendar" data-tags="Prod_Events" d="M76 736c0 46.392 37.608 84 84 84h49.63c11.045 0 20-8.954 20-20s-8.955-20-20-20h-49.63c-24.3 0-44-19.7-44-44v-92h792v92c0 24.3-19.699 44-44 44h-59.261c-11.043 0-20 8.954-20 20s8.957 20 20 20h59.261c46.39 0 84-37.608 84-84v-640c0-46.39-37.61-84-84-84h-704c-46.392 0-84 37.61-84 84v640zM908 604h-792v-508c0-24.301 19.7-44 44-44h704c24.301 0 44 19.699 44 44v508zM353.334 800c0 11.046 8.954 20 20 20h292.739c11.046 0 20-8.954 20-20s-8.954-20-20-20h-292.739c-11.046 0-20 8.954-20 20zM272 872c13.255 0 24-10.745 24-24v-112c0-13.255-10.745-24-24-24s-24 10.745-24 24v112c0 13.255 10.745 24 24 24zM736 872c13.254 0 24-10.745 24-24v-112c0-13.255-10.746-24-24-24s-24 10.745-24 24v112c0 13.255 10.746 24 24 24zM224 384h64v-64h-64v64zM224 256h64v-64h-64v64zM352 384h64v-64h-64v64zM352 512h64v-64h-64v64zM352 256h64v-64h-64v64zM480 384h64v-64h-64v64zM480 512h64v-64h-64v64zM480 256h64v-64h-64v64zM608 384h64v-64h-64v64zM608 512h64v-64h-64v64zM608 256h64v-64h-64v64zM736 384h64v-64h-64v64zM736 512h64v-64h-64v64zM736 256h64v-64h-64v64z" />
<glyph unicode="&#xe99a;" glyph-name="prod-labels" data-tags="Prod_Labels" d="M424.534 864h182.4c0 0 114.275-184.364 129.066-299.354 5.965-46.381 0-164.646 0-164.646h-287.971c-17.674 0-32.029-14.326-32.029-32v-192c0-17.674 14.326-32 32-32h288v-114.064c0-61.936-16-61.936-61.866-61.936h-324.269c-61.866 0-61.866 45.405-61.866 61.936v534.71c0 107.354 136.534 299.354 136.534 299.354zM584.24 824h-138.614c-2.618-3.915-5.61-8.438-8.896-13.489-12.451-19.14-29.002-45.678-45.501-75.361-16.554-29.791-32.688-62.099-44.589-92.869-12.166-31.459-18.64-58.137-18.64-77.635v-534.71c0-4.134 0.045-7.45 0.541-10.838 0.496-3.36 1.258-5.331 1.85-6.355 0.342-0.595 0.72-1.152 2.134-1.885 1.747-0.906 6.698-2.858 17.341-2.858h324.269c9.696 0 16.016 0.042 20.714 0.355 0.65 4.496 1.152 11.344 1.152 21.581v74.064h-248c-39.763 0-72 32.237-72 72v192c0 39.808 32.307 72 72.029 72h249.53c0.253 7.923 0.496 16.656 0.688 25.773 0.755 35.888 0.618 74.042-1.92 93.77-6.442 50.086-35.763 119.544-66.141 179.926-14.8 29.422-29.181 55.402-39.862 74.026-2.198 3.83-4.234 7.343-6.083 10.506zM701.005 9.142c0.003-0.003-0.013-0.006-0.042-0.016l0.042 0.016zM424 888h176v-16h-176v16zM416 928c-17.674 0-32-14.327-32-32v-32c0-17.673 14.326-32 32-32h192c17.674 0 32 14.327 32 32v32c0 17.673-14.326 32-32 32h-192zM732.595 400h-291.002c-13.254 0-24-10.746-24-24v-208c0-13.254 10.746-24 24-24h352c13.254 0 24 10.746 24 24v156h-34.998c-0.134 0-0.278 0-0.435 0-4.49-0.013-18.838-0.054-31.709 8.64-8.896 6.010-13.299 14.563-15.45 21.952-2.083 7.149-2.406 14.333-2.406 19.664v25.744zM857.594 344v-176c0-35.347-28.653-64-64-64h-352c-35.347 0-64 28.653-64 64v208c0 35.347 28.653 64 64 64h311.002l104.998-96zM775.805 364.579l-2.701 2.47c0.090-0.477 0.192-0.899 0.301-1.27 0.045-0.154 0.086-0.285 0.122-0.394 0.598-0.301 1.35-0.579 2.278-0.806z" />
<glyph unicode="&#xe99b;" glyph-name="marketing-essentials" data-tags="Prod_Marketing_Essentials" d="M826.958 868.274c7.012-2.21 11.779-8.712 11.779-16.063v-538.948c0-7.351-4.767-13.854-11.779-16.063s-14.646 0.383-18.86 6.405c-29.437 42.051-122.996 130.511-256.331 141.026h-349.661c-9.302 0-16.842 7.54-16.842 16.842v229.053c0 9.301 7.54 16.842 16.842 16.842h350.316c87.649 0 182.638 50.161 255.677 154.5 4.215 6.022 11.849 8.615 18.86 6.405zM805.053 803.064c-73.488-85.359-164.374-129.38-252.632-129.38h-198.737v-195.368h198.737c0.431 0 0.862-0.016 1.291-0.049 115.205-8.863 202.873-70.284 251.341-119.334v444.131zM320 478.316v195.368h-101.053v-195.368h101.053zM104.421 663.579c0 9.302 7.54 16.842 16.842 16.842h53.895v-33.684h-37.053v-141.474h37.053v-33.684h-53.895c-9.302 0-16.842 7.54-16.842 16.842v175.158zM266.105 461.474h33.684v-225.989c1.903-4.471 5.627-10.765 11.259-16.112 6.38-6.058 14.748-10.531 25.793-10.531 10.679 0 15.729 4.072 18.669 8.157 3.56 4.942 4.91 11.38 4.91 15.422v229.053h33.684v-229.053c0-9.432-2.692-23.204-11.259-35.104-9.186-12.757-24.347-22.159-46.005-22.159-21.292 0-37.625 9-48.985 19.785-11.074 10.515-17.86 23.070-20.887 32.154l-0.864 2.592v231.785zM899.368 569.263c0 42.787-34.687 77.474-77.474 77.474v33.684c61.391 0 111.158-49.766 111.158-111.158s-49.766-111.158-111.158-111.158v33.684c42.787 0 77.474 34.687 77.474 77.474z" />
<glyph unicode="&#xe99c;" glyph-name="new" data-tags="Prod_New" d="M512.010 904.346l87.52-84.666c15.958-15.441 38.154-22.653 60.144-19.542l120.57 17.054 21.037-119.938c3.84-21.874 17.555-40.754 37.174-51.163l107.565-57.073-53.475-109.398c-9.754-19.952-9.754-43.286 0-63.238l53.475-109.398-107.565-57.072c-19.619-10.41-33.334-29.29-37.174-51.165l-21.037-119.936-120.57 17.053c-21.99 3.11-44.186-4.102-60.144-19.542l-87.52-84.666-87.52 84.666c-15.962 15.44-38.154 22.653-60.144 19.542l-120.57-17.053-21.039 119.936c-3.837 21.875-17.554 40.755-37.172 51.165l-107.567 57.072 53.477 109.398c9.753 19.952 9.753 43.286 0 63.238l-53.477 109.398 107.567 57.073c19.618 10.409 33.334 29.288 37.172 51.163l21.039 119.938 120.57-17.054c21.99-3.11 44.182 4.101 60.144 19.542l87.52 84.666zM534.259 938.476c-12.406 12.001-32.093 12.001-44.499 0l-93.082-90.047c-7.094-6.863-16.957-10.068-26.73-8.685l-128.234 18.138c-17.090 2.418-33.018-9.155-36-26.156l-22.376-127.561c-1.706-9.722-7.802-18.113-16.521-22.739l-114.404-60.699c-15.247-8.090-21.331-26.816-13.751-42.323l56.876-116.349c4.335-8.867 4.335-19.242 0-28.109l-56.876-116.352c-7.58-15.504-1.496-34.23 13.751-42.32l114.403-60.698c8.719-4.627 14.815-13.018 16.521-22.739l22.376-127.562c2.982-17.002 18.91-28.573 36-26.157l128.234 18.138c9.773 1.382 19.635-1.821 26.73-8.685l93.082-90.048c12.406-12 32.093-12 44.499 0l93.082 90.048c7.094 6.864 16.957 10.067 26.73 8.685l128.234-18.138c17.091-2.416 33.018 9.155 36 26.157l22.374 127.562c1.706 9.722 7.802 18.112 16.522 22.739l114.403 60.698c15.248 8.090 21.331 26.816 13.75 42.32l-56.874 116.352c-4.336 8.867-4.336 19.242 0 28.109l56.874 116.349c7.581 15.507 1.498 34.234-13.75 42.323l-114.403 60.699c-8.72 4.626-14.816 13.017-16.522 22.739l-22.374 127.561c-2.982 17.001-18.909 28.573-36 26.156l-128.234-18.138c-9.773-1.382-19.635 1.823-26.73 8.685l-93.082 90.047zM399.446 352h-42.189l-82.124 134.72v-134.72h-42.188v204.749h42.188l82.264-134.998v134.998h42.048v-204.749zM559.478 440.733h-81.002v-54.842h95.062v-33.891h-137.248v204.749h136.966v-34.17h-94.781v-48.797h81.002v-33.050zM757.76 411.062l27.562 145.686h42.048l-45.424-204.749h-42.467l-33.328 136.97-33.328-136.97h-42.47l-45.421 204.749h42.048l27.702-145.405 33.75 145.405h35.718l33.61-145.686z" />
<glyph unicode="&#xe99d;" glyph-name="packaging" data-tags="Prod_Packaging" d="M237.948 950.351l455.79-135.577 245.12-218.732v-457.45l-431.427-192.493-431.43 192.493v474.714l13.611 18.954 209.872 70.751-210.207 75.032c-6.648 2.373-11.553 8.075-12.906 15.003s1.046 14.056 6.313 18.756l155.263 138.55zM360.304 681.301l-205.213-69.18 352.938-134.979 343.69 109.533-262.134 80.059-38.15-40.852c-5.443-5.83-13.83-7.869-21.341-5.187l-169.789 60.607zM619.974 699.277l217.587-66.454-152.534 136.115-65.053-69.66zM647.091 786.918l-399.16 118.731-113.476-101.261 396.713-141.603 115.923 124.134zM898.858 559.718l-371.427-118.374v-442.522l371.427 165.725v395.171zM487.43-1.178v443.376l-371.43 142.048v-419.699l371.43-165.725zM436.746 599.958l110.934 34.666-11.93 38.18-137.146-42.858c-6.102-1.907-10.925-6.618-12.976-12.672s-1.085-12.726 2.605-17.949l102.858-145.715 32.678 23.066-87.024 123.283zM420.605 582.317l-308.571 17.142 2.219 39.939 308.573-17.142-2.221-39.939z" />
<glyph unicode="&#xe99e;" glyph-name="promo" data-tags="Prod_Promo" d="M759.165 784c-14.163-5.911-34.006-11.951-59.446-17.482-63.056-13.708-152.074-22.518-251.718-22.518s-188.661 8.811-251.718 22.518c-25.44 5.531-45.284 11.571-59.448 17.482 14.164 5.911 34.008 11.951 59.448 17.482 63.057 13.708 152.073 22.518 251.718 22.518s188.662-8.811 251.718-22.518c25.44-5.531 45.283-11.571 59.446-17.482zM448 704c203.242 0 368 35.817 368 80s-164.758 80-368 80c-203.241 0-368-35.817-368-80s164.759-80 368-80zM96 804c11.046 0 20-8.954 20-20v-687.821c0.113-0.336 0.55-1.293 2.014-2.918 2.587-2.874 7.337-6.605 15.114-10.784 15.526-8.342 39.312-16.477 70.403-23.542 61.859-14.058 148.303-22.934 244.469-22.934s182.611 8.877 244.47 22.934c31.088 7.066 54.874 15.2 70.4 23.542 7.779 4.179 12.528 7.91 15.114 10.784 1.466 1.626 1.904 2.582 2.016 2.918v63.821c0 11.046 8.954 20 20 20s20-8.954 20-20v-64c0-11.891-5.389-21.843-12.288-29.504-6.79-7.546-15.872-13.862-25.907-19.254-20.099-10.8-47.862-19.901-80.47-27.312-65.542-14.896-155.098-23.93-253.334-23.93s-187.794 9.034-253.334 23.93c-32.609 7.411-60.372 16.512-80.471 27.312-10.035 5.392-19.116 11.709-25.907 19.254-6.898 7.661-12.288 17.613-12.288 29.504v688c0 11.046 8.954 20 20 20zM800 804c11.046 0 20-8.954 20-20v-112c0-11.046-8.954-20-20-20s-20 8.954-20 20v112c0 11.046 8.954 20 20 20zM800 596c11.046 0 20-8.954 20-20v-304c0-11.046-8.954-20-20-20s-20 8.954-20 20v304c0 11.046 8.954 20 20 20zM734.598 691.391c5.754 0.404 11.558 0.609 17.402 0.609 72.733 0 130.518-31.74 169.59-82.832 38.688-50.582 58.41-119.162 58.41-193.168s-19.722-142.586-58.41-193.168c-39.072-51.091-96.858-82.832-169.59-82.832-5.843 0-11.648 0.205-17.402 0.608-11.018 0.774-19.322 10.333-18.55 21.354 0.774 11.018 10.333 19.322 21.354 18.55 4.822-0.339 9.69-0.512 14.598-0.512 59.818 0 106.032 25.568 137.821 67.13 32.173 42.070 50.179 101.494 50.179 168.87s-18.006 126.8-50.179 168.87c-31.789 41.562-78.003 67.13-137.821 67.13-4.909 0-9.776-0.172-14.598-0.511-11.021-0.774-20.579 7.532-21.354 18.55-0.771 11.019 7.533 20.578 18.55 21.352zM716 592c0 11.046 8.954 20 20 20 54.134 0 96.278-20.451 124.31-56.934 27.443-35.715 39.69-84.582 39.69-139.066 0-50.954-12.397-96.182-40.323-128.97-28.362-33.293-70.406-51.030-123.677-51.030-11.046 0-20 8.954-20 20s8.954 20 20 20c43.933 0 73.885 14.262 93.226 36.97 19.773 23.213 30.774 57.984 30.774 103.030 0 49.2-11.152 88.33-31.408 114.694-19.667 25.597-49.523 41.306-92.592 41.306-11.046 0-20 8.954-20 20z" />
<glyph unicode="&#xe99f;" glyph-name="signs" data-tags="Prod_Signs" d="M936.218 642.461v-573.393h-851.403v573.393h851.403zM41.376 685.9v-660.272h938.282v660.272h-938.282zM24 842.281c0 11.995 9.724 21.719 21.719 21.719h916.562c11.994 0 21.718-9.724 21.718-21.719s-9.725-21.72-21.718-21.72h-916.562c-11.995 0-21.719 9.724-21.719 21.72zM215.131 512.144v312.761h34.751v-312.761h-34.751zM771.149 512.144v312.761h34.752v-312.761h-34.752zM284.634 529.52c0-28.787-23.338-52.125-52.127-52.125s-52.127 23.338-52.127 52.125c0 28.79 23.338 52.128 52.127 52.128s52.127-23.338 52.127-52.128zM840.653 529.52c0-28.787-23.338-52.125-52.128-52.125-28.787 0-52.128 23.338-52.128 52.125 0 28.79 23.341 52.128 52.128 52.128 28.79 0 52.128-23.338 52.128-52.128z" />
<glyph unicode="&#xe9a0;" d="M580.986 487.821l1.706-339.485 295.965-88.461 3.555 374.611-301.226 53.334z" />
<glyph unicode="&#xe9a1;" d="M213.047 444.301l2.702-360.25 366.932 64.854-1.706 338.915-367.929-43.52z" />
<glyph unicode="&#xe9a2;" d="M489.968-8.819l1.28 387.84-278.045 69.83v-367.36l273.635-92.442c1.424-0.57 3.13 0.566 3.13 2.131z" />
<glyph unicode="&#xe9a3;" d="M212.773 447.005l-113.351 346.737 3.698 6.116 0.711 51.342c0.427 37.831 31.573 68.409 70.116 68.836l246.188 3.129c29.296 0.427 52.621-24.036 50.346-52.764l-5.12-64.284 116.054-318.151-368.641-40.96z" />
<glyph unicode="&#xe9a4;" d="M882.211 434.49l69.83 155.59c3.84 8.39-1.706 18.205-10.95 19.485l-234.666 32.853c-6.259 0.853-12.515-1.707-16.214-6.684l-109.226-147.91 301.226-53.334z" />
<glyph unicode="&#xe9a5;" d="M491.238 379.021l-278.044 69.83-137.244 132.694c-2.702 2.704-0.284 7.11 3.413 6.4l220.587-42.096c1.991-0.429 3.84-1.28 5.262-2.56l186.026-164.269z" />
<glyph unicode="&#xe9a6;" d="M491.238 379.021l-278.044 69.83-137.244 132.694c-2.702 2.704-0.284 7.11 3.413 6.4l220.587-42.096c1.991-0.429 3.84-1.28 5.262-2.56l186.026-164.269zM491.238 379.021l-1.99-389.405" />
<glyph unicode="&#xe9a7;" d="M467.35 807.68l-362.241-6.116" />
<glyph unicode="&#xe9a8;" d="M878.653 60.301l-387.981-70.4 0.57 389.83 390.256 54.758-2.845-374.189z" />
<glyph unicode="&#xe9a9;" glyph-name="recent-search" data-tags="Recent_Search" d="M501.334 908c-212.815 0-385.334-172.52-385.334-385.334 0-11.043-8.954-20-20-20s-20 8.957-20 20c0 234.906 190.428 425.334 425.334 425.334s425.331-190.428 425.331-425.334c0-234.906-190.426-425.331-425.331-425.331-118.979 0-226.578 48.877-303.749 127.597-7.732 7.888-7.607 20.55 0.281 28.285 7.888 7.731 20.55 7.606 28.283-0.282 69.958-71.363 167.387-115.6 275.185-115.6 212.813 0 385.331 172.518 385.331 385.331 0 212.815-172.518 385.334-385.331 385.334zM197.333 598.662c6.627-8.835 4.836-21.373-4-28l-99.21-74.406-76.265 76.266c-7.81 7.811-7.81 20.474 0 28.285 7.81 7.808 20.474 7.808 28.284 0l51.735-51.734 71.457 53.59c8.836 6.627 21.372 4.838 28-4zM764.531 216.806c7.808 7.811 20.474 7.811 28.282 0l213.334-213.334c7.811-7.808 7.811-20.474 0-28.285-7.811-7.808-20.474-7.808-28.285 0l-213.331 213.334c-7.811 7.811-7.811 20.474 0 28.285zM480 820c11.046 0 20-8.954 20-20v-287.344l203.622-122.173c9.472-5.683 12.544-17.968 6.861-27.44s-17.968-12.544-27.44-6.861l-223.043 133.827v309.99c0 11.046 8.954 20 20 20z" />
<glyph unicode="&#xe9aa;" glyph-name="rectangle" data-tags="Rectangle" d="M12 768c0 11.046 8.954 20 20 20h960c11.046 0 20-8.954 20-20v-640c0-11.046-8.954-20-20-20h-960c-11.046 0-20 8.954-20 20v640zM52 748v-600h920v600h-920z" />
<glyph unicode="&#xe9ab;" glyph-name="remove" data-tags="Remove" d="M406.768 861.1c3.955 6.084 13.882 14.9 41.232 14.9h176c3.382 0 10.25-1.564 16.15-7.228 5.392-5.178 11.85-15.602 11.85-36.772v-44h-248v44c0 1.635-0.202 3.264-0.598 4.851-1.763 7.054-1.402 16.913 3.366 24.25zM692 788h268c11.046 0 20-8.954 20-20s-8.954-20-20-20h-30.653l-93.36-653.51c-0.416-24.547-10.931-43.44-23.482-56.659-12.486-13.152-27.395-21.21-38.182-24.803-2.038-0.682-4.173-1.027-6.323-1.027h-448c-53.731 0-82.693 23.126-83.957 50.147l-109.113 685.853h-30.93c-11.046 0-20 8.954-20 20s8.954 20 20 20h268v41.76c-2.97 14.275-2.592 34.952 9.232 53.14 13.379 20.583 38.118 33.1 74.768 33.1h176c12.618 0 29.75-4.836 43.85-18.372 14.608-14.022 24.15-35.598 24.15-65.628v-44zM888.941 748h-721.508l108.318-680.858c0.093-0.586 0.16-1.174 0.201-1.766 0.185-0.125 3.865-13.376 44.047-13.376h444.362c5.312 2.259 12.784 6.682 19.133 13.37 7.194 7.578 12.506 17.514 12.506 30.63 0 0.947 0.067 1.891 0.202 2.829l92.739 649.171zM384 676c-11.046 0-20-8.954-20-20v-496c0-11.046 8.954-20 20-20s20 8.954 20 20v496c0 11.046-8.954 20-20 20zM528 676c-11.046 0-20-8.954-20-20v-496c0-11.046 8.954-20 20-20s20 8.954 20 20v496c0 11.046-8.954 20-20 20zM672 676c-11.046 0-20-8.954-20-20v-496c0-11.046 8.954-20 20-20s20 8.954 20 20v496c0 11.046-8.954 20-20 20z" />
<glyph unicode="&#xe9ac;" glyph-name="reorder" data-tags="Reorder" d="M187.271 878.142c3.751 3.751 8.838 5.858 14.142 5.858h395.297c11.046 0 20-8.954 20-20v-225.885c0-11.046-8.954-20-20-20s-20 8.954-20 20v205.885h-355.297v-149.413c0-11.046-8.954-20-20-20h-149.413v-581.182h347.062c11.046 0 20-8.954 20-20s-8.954-20-20-20h-367.062c-11.046 0-20 8.954-20 20v621.182c0 5.304 2.107 10.391 5.858 14.142l169.413 169.413zM80.284 714.587h101.129v101.129l-101.129-101.129zM709.642 561.661c-144.893 0-262.355-117.459-262.355-262.355 0-11.046-8.954-20-20-20s-20 8.954-20 20c0 166.986 135.37 302.355 302.355 302.355 84.022 0 160.032-34.282 214.81-89.574v38.202c0 11.046 8.954 20 20 20s20-8.954 20-20v-94.118c0-11.046-8.954-20-20-20h-77.946c-11.046 0-20 8.954-20 20s8.954 20 20 20h36.918c-47.997 52.56-117.046 85.491-193.782 85.491zM991.997 319.306c11.046 0 20-8.954 20-20 0-166.986-135.37-302.355-302.355-302.355-76.499 0-146.371 28.426-199.61 75.251v-23.878c0-11.046-8.954-20-20-20s-20 8.954-20 20v73.498c0 11.043 8.954 20 20 20h94.118c11.046 0 20-8.957 20-20 0-11.046-8.954-20-20-20h-47.229c46.16-40.41 106.579-64.87 172.72-64.87 144.896 0 262.355 117.459 262.355 262.355 0 11.046 8.954 20 20 20z" />
<glyph unicode="&#xe9ad;" glyph-name="right-of-copy" data-tags="Right of copy" d="M301.36 399.613c25.632 51.264 42.64 124.886 42.64 208.387 0 83.502-17.008 157.122-42.64 208.386-26.828 53.656-56.49 71.614-77.36 71.614s-50.532-17.958-77.36-71.614c-25.632-51.264-42.64-124.883-42.64-208.386 0-83.501 17.008-157.123 42.64-208.387 26.828-53.654 56.49-71.613 77.36-71.613s50.532 17.958 77.36 71.613zM384 608c0-176.73-71.635-320-160-320s-160 143.27-160 320c0 176.731 71.635 320 160 320s160-143.269 160-320zM216 499.152c0.757 1.667 1.533 3.504 2.318 5.523 7.922 20.371 13.682 51.232 13.682 87.325s-5.76 66.955-13.682 87.325c-0.785 2.018-1.561 3.855-2.318 5.524-0.757-1.669-1.533-3.507-2.318-5.524-7.922-20.371-13.682-51.233-13.682-87.325s5.76-66.954 13.682-87.325c0.785-2.019 1.561-3.856 2.318-5.523zM272 592c0-79.53-25.072-144-56-144s-56 64.47-56 144c0 79.529 25.072 144 56 144s56-64.471 56-144zM672 932h-448v-40h447.434c44.566-2.591 111.987-20.677 167.926-66.299 55.36-45.15 100.64-118.134 100.64-233.701v-588h-552v588h-40v-608c0-11.046 8.954-20 20-20h592c11.046 0 20 8.954 20 20v608c0 127.633-50.72 211.982-115.36 264.699-63.834 52.060-140.093 72.413-191.53 75.27-0.371 0.021-0.739 0.031-1.11 0.031zM352 324h-112v-40h112v40zM944 532h-560v-40h560v40zM595.466 189.782v98.624l-52.746 18.749v59.814l256-101.626v-52.125l-256-102.189v59.814l52.746 18.938zM638.192 273.219v-68.25l95.824 34.31-95.824 33.939zM564.749 686.812v98.625l-52.749 18.75v59.812l256-101.625v-52.125l-256-102.186v59.811l52.749 18.938zM607.472 770.25v-68.25l95.824 34.313-95.824 33.937z" />
<glyph unicode="&#xe9ae;" glyph-name="roll-fold" data-tags="Roll Fold" d="M685.008 959.194c4.438-3.8 6.995-9.351 6.995-15.195v-196.267c0-11.045-8.954-20-20-20s-20 8.955-20 20v158.435l-256.736-174.962c-9.13-6.22-21.571-3.863-27.792 5.264s-3.862 21.57 5.264 27.79l214.643 146.275-424.292-66.296c-10.913-1.705-21.143 5.759-22.848 16.673s5.759 21.143 16.673 22.848l512 80c5.773 0.902 11.654-0.766 16.093-4.566zM149.915 881.269c6.138 3.586 13.719 3.644 19.911 0.152l351.998-198.465c6.288-3.545 10.179-10.203 10.179-17.421v-697.535c0-6.842-3.498-13.206-9.267-16.877-5.773-3.67-13.021-4.138-19.216-1.235l-351.999 164.848c-7.028 3.293-11.518 10.352-11.518 18.112v731.152c0 7.109 3.773 13.683 9.912 17.269zM180.003 829.764v-684.196l312-146.118v654.402l-312 175.912zM874.778 848.849c-5.747 3.676-12.973 4.168-19.165 1.306l-352-162.67c-7.078-3.271-11.61-10.357-11.61-18.155v-701.33c0-6.531 3.19-12.653 8.544-16.394s12.198-4.634 18.333-2.387l352 128.87c7.882 2.886 13.123 10.387 13.123 18.781v735.13c0 6.822-3.478 13.174-9.226 16.849zM844.003 800.725v-689.877l-312-114.227v659.92l312 144.185z" />
<glyph unicode="&#xe9af;" glyph-name="roll-stickers-stickers" data-tags="Roll-Stickers_Stickers" d="M560.387 658.64c-51.264-25.632-124.886-42.64-208.387-42.64s-157.122 17.008-208.386 42.64c-53.656 26.828-71.614 56.49-71.614 77.36s17.958 50.532 71.614 77.36c51.264 25.632 124.883 42.64 208.386 42.64 83.501 0 157.123-17.008 208.387-42.64 53.654-26.828 71.613-56.49 71.613-77.36s-17.958-50.532-71.613-77.36zM352 576c176.73 0 320 71.635 320 160s-143.27 160-320 160c-176.731 0-320-71.635-320-160s143.269-160 320-160zM460.848 744c-1.667-0.757-3.504-1.533-5.523-2.318-20.371-7.922-51.232-13.682-87.325-13.682s-66.955 5.76-87.325 13.682c-2.018 0.785-3.855 1.561-5.524 2.318 1.669 0.757 3.507 1.533 5.524 2.318 20.371 7.922 51.233 13.682 87.325 13.682s66.954-5.76 87.325-13.682c2.019-0.785 3.856-1.561 5.523-2.318zM368 688c79.53 0 144 25.072 144 56s-64.47 56-144 56c-79.529 0-144-25.072-144-56s64.471-56 144-56zM28 288v448h40v-447.434c2.591-44.566 20.677-111.987 66.299-167.926 45.149-55.36 118.133-100.64 233.701-100.64h588v552h-588v40h608c11.046 0 20-8.954 20-20v-592c0-11.046-8.954-20-20-20h-608c-127.633 0-211.982 50.72-264.699 115.36-52.060 63.834-72.412 140.093-75.27 191.53-0.021 0.371-0.031 0.739-0.031 1.11zM636 608v112h40v-112h-40zM428 16v560h40v-560h-40z" />
<glyph unicode="&#xe9b0;" glyph-name="saved-design" data-tags="Saved_Design" d="M862.794 746.196c5.568 9.396 17.645 12.588 27.13 7.169l112-64c4.653-2.659 8.045-7.074 9.414-12.255 1.366-5.181 0.602-10.695-2.131-15.306l-259.328-437.615-118-50.573c-6.179-2.646-13.277-2.013-18.89 1.686-5.61 3.702-8.989 9.974-8.989 16.698v117.482l258.794 436.715zM887.171 708.868l-243.171-410.349v-76.189l78.122 33.482 242.314 408.905-77.264 44.152zM934.077 590.634l-112 64.002 19.846 34.73 112-63.998-19.846-34.733zM44 736c0 46.392 37.608 84 84 84h608c46.39 0 84-37.608 84-84v-16c0-11.046-8.954-20-20-20s-20 8.954-20 20v16c0 24.3-19.699 44-44 44h-608c-24.3 0-44-19.7-44-44v-608c0-24.301 19.7-44 44-44h608c24.301 0 44 19.699 44 44v64c0 11.046 8.954 20 20 20s20-8.954 20-20v-64c0-46.39-37.61-84-84-84h-608c-46.392 0-84 37.61-84 84v608zM592 724c11.046 0 20-8.954 20-20v-112c0-11.046-8.954-20-20-20s-20 8.954-20 20v112c0 11.046 8.954 20 20 20zM244 800v-224c0-24.301 19.7-44 44-44h320c24.301 0 44 19.699 44 44v224h40v-224c0-46.39-37.61-84-84-84h-320c-46.392 0-84 37.61-84 84v224h40z" />
<glyph unicode="&#xe9b1;" glyph-name="search" data-tags="Search" d="M448 104c-225.332 0-408 182.669-408 408s182.668 408 408 408c225.331 0 408-182.668 408-408s-182.669-408-408-408zM448 64c247.424 0 448 200.576 448 448s-200.576 448-448 448c-247.424 0-448-200.576-448-448s200.576-448 448-448zM732.525 227.475c7.811 7.811 20.474 7.811 28.285 0l234.666-234.666c7.811-7.811 7.811-20.474 0-28.285s-20.474-7.811-28.285 0l-234.666 234.666c-7.811 7.811-7.811 20.474 0 28.285z" />
<glyph unicode="&#xe9b2;" glyph-name="secured-checkout" data-tags="Secured_Checkout" d="M533.914 306.97l0.010-133.757c0-11.046-8.954-20.003-20-20.003s-20 8.954-20 20l-0.010 133.747c-34.246 8.861-59.539 39.968-59.539 76.982 0 43.914 35.6 79.514 79.514 79.514s79.514-35.6 79.514-79.514c0-36.995-25.267-68.090-59.488-76.97zM521.696 345.2c18.083 3.622 31.706 19.59 31.706 38.739 0 21.824-17.693 39.514-39.514 39.514-21.824 0-39.514-17.69-39.514-39.514 0-19.162 13.642-35.136 31.741-38.749 2.397 1.018 5.030 1.578 7.798 1.578 2.762 0.003 5.392-0.557 7.782-1.568zM337.411 617.117c-105.923-59.939-177.411-173.635-177.411-304.026 0-192.797 156.293-349.091 349.091-349.091s349.091 156.294 349.091 349.091c0 131.066-72.23 245.261-179.056 304.95 5.52 3.562 9.174 9.763 9.174 16.819v136.475c0 96.122-80.928 172.665-179.024 172.665s-179.027-76.543-179.027-172.665v-138.884c0-6.157 2.784-11.664 7.162-15.334zM370.25 771.335c0 72.507 61.466 132.665 139.027 132.665 77.558 0 139.024-60.158 139.024-132.665v-136.475c0-0.528 0.022-1.050 0.061-1.568-42.666 18.583-89.763 28.889-139.27 28.889-49.341 0-96.291-10.236-138.842-28.7v137.854zM818.182 313.091c0-170.707-138.384-309.091-309.091-309.091s-309.091 138.384-309.091 309.091c0 170.707 138.384 309.091 309.091 309.091s309.091-138.384 309.091-309.091z" />
<glyph unicode="&#xe9b3;" glyph-name="share-link" data-tags="Share_Link" d="M379.798 849.004c-66.105 66.135-180.534 90.213-270.744-0.002-89.904-89.91-60.765-209.974 0.009-270.742l66.444-66.458c7.81-7.811 7.808-20.474-0.003-28.285-7.812-7.808-20.475-7.808-28.284 0.003l-66.438 66.454c-0.001 0 0.001 0 0 0-72.148 72.141-109.468 217.847-0.012 327.311 109.152 109.159 249.134 78.217 327.32-0.004 22.16-22.172 52.445-49.307 85.184-78.643 20.086-17.998 41.098-36.825 61.725-55.843 26.768-24.677 52.63-49.464 73.994-72.418 21.034-22.604 38.986-44.762 48.653-64.093 17.072-34.138 35.341-79.027 35.341-129.382 0-51.264-18.922-106.112-72.31-159.501-7.811-7.811-20.477-7.811-28.285 0-7.811 7.808-7.811 20.474 0 28.285 46.285 46.285 60.595 91.11 60.595 131.216 0 41.011-14.957 79.181-31.117 111.491-6.947 13.891-21.514 32.547-42.16 54.733-20.32 21.836-45.309 45.814-71.824 70.26-19.501 17.98-39.987 36.342-59.894 54.188-33.501 30.028-65.373 58.596-88.192 81.428zM640.646 46.63c66.106-66.138 180.56-90.218 270.768-0.003 45.587 45.59 60.598 98.394 60.595 143.683-0.003 22.755-3.805 43.462-9.363 60.122-5.693 17.066-12.717 28.403-18.016 33.699l-66.448 66.464c-7.811 7.811-7.808 20.474 0.003 28.285 7.811 7.808 20.474 7.808 28.285-0.003l66.432-66.448c0.003-0.003-0.003 0.003 0 0 11.315-11.309 20.918-29.040 27.69-49.344 6.909-20.714 11.414-45.69 11.418-72.771 0.003-54.384-18.214-117.869-72.307-171.968-109.155-109.162-249.162-78.214-327.347 0.006-22.157 22.17-52.432 49.296-85.162 78.624-20.090 18.003-41.107 36.835-61.738 55.859-26.762 24.675-52.624 49.462-73.984 72.416-21.034 22.605-38.982 44.762-48.65 64.093-17.072 34.138-35.34 79.024-35.339 129.382 0.001 51.261 18.92 106.109 72.312 159.501 7.808 7.811 20.474 7.811 28.285 0 7.808-7.811 7.808-20.474 0-28.285-46.288-46.288-60.595-91.114-60.595-131.216-0.003-41.011 14.957-79.184 31.114-111.491 6.947-13.891 21.514-32.55 42.157-54.736 20.32-21.834 45.302-45.811 71.814-70.256 19.507-17.987 39.997-36.352 59.91-54.205 33.491-30.022 65.35-58.582 88.166-81.408z" />
<glyph unicode="&#xe9b4;" glyph-name="shipping-box" data-tags="Shipping Box" d="M544 672v-224l256 76.717-256 147.283zM194.843 582.166l-2.843-390.166 351.354 122.326 0.646 357.674-349.157-89.834zM194.969 608l0.003-416 214.587-191.037c2.723-2.573 6.438 0.285 6.438 5.29l-1.61 413.747-219.419 188zM421.251 0.234l375.99 123.981c1.709 0.541 2.758 2.16 2.758 3.917l-3.283 379.773c0 2.701-2.624 4.726-5.12 3.917l-372.707-115.744c-1.709-0.538-2.89-2.16-2.89-3.914l0.131-388.013c-0.131-2.835 2.496-4.861 5.12-3.917zM178.765 576l365.235 86.918-63.414 229.247c-0.81 2.58-2.832 4.074-4.858 3.803l-342.162-60.979c-3.913-0.679-6.476-5.704-5.262-10.593l50.461-248.396zM959.082 729.544c2.019 7.449 0.576 13.11-3.034 14.6l-285.965 119.483c-2.598 1.043-5.344-0.149-6.931-2.98l-119.152-188.647 256-160 159.082 217.544zM256.593 644.052l-221.335 123.709c-1.944 1.156-3.61-2.168-3.194-3.613l139.549-182.528 244.383-165.619c0.694-0.144-159.404 228.052-159.404 228.052zM814.938 536.522c0.141 0 0.416 0.138 0.416 0.278l111.658 128.832c2.211 2.507 0.416 7.103-2.486 6.268l-380.304-101.813c-0.138 0-0.416-0.138-0.554-0.278l-127.411-152.093c-0.691-0.835 0.138-1.949 1.104-1.67l397.578 120.477z" />
<glyph unicode="&#xe9b5;" glyph-name="shipping" data-tags="Shipping" d="M228.364 197.091c-38.158 0-69.091 30.931-69.091 69.091 0 38.157 30.933 69.091 69.091 69.091s69.091-30.934 69.091-69.091c0-38.16-30.933-69.091-69.091-69.091zM228.364 157.091c60.249 0 109.092 48.842 109.092 109.091s-48.843 109.091-109.092 109.091c-60.249 0-109.091-48.842-109.091-109.091s48.842-109.091 109.091-109.091zM795.635 197.091c-38.157 0-69.091 30.931-69.091 69.091 0 38.157 30.934 69.091 69.091 69.091 38.16 0 69.091-30.934 69.091-69.091 0-38.16-30.931-69.091-69.091-69.091zM795.635 157.091c60.25 0 109.091 48.842 109.091 109.091s-48.842 109.091-109.091 109.091c-60.25 0-109.091-48.842-109.091-109.091s48.842-109.091 109.091-109.091zM58.72 735.5c-4.95-7.836-6.72-18.231-6.72-25.682v-445.453h67.273c11.046 0 20-8.957 20-20 0-11.046-8.954-20-20-20h-87.273c-11.046 0-20 8.954-20 20v465.453c0 11.943 2.538 30.639 12.902 47.045 11.174 17.689 30.592 31.137 59.737 31.137h525.156c12.605 0 30.877-3.826 46.506-15.723 16.579-12.62 28.522-33.125 28.522-62.459v-80.001h171.891l2.224-0.515c6.077-1.405 10.73-5.123 12.806-6.845 2.816-2.326 5.696-5.178 8.496-8.186 5.648-6.061 12.256-14.134 19.309-23.354 14.173-18.525 31.11-42.954 47.366-68.237 16.253-25.277 32.070-51.792 43.904-74.502 5.907-11.328 10.986-22.026 14.637-31.331 3.363-8.563 6.544-18.403 6.544-27.030v-145.453c0-11.046-8.954-20-20-20h-87.274c-11.046 0-20 8.954-20 20 0 11.043 8.954 20 20 20h67.274v125.453c0-0.17-0.013 0.784-0.675 3.296-0.624 2.342-1.632 5.376-3.101 9.114-2.938 7.482-7.315 16.8-12.877 27.469-11.091 21.286-26.227 46.704-42.077 71.35-15.84 24.64-32.15 48.128-45.491 65.568-6.704 8.765-12.422 15.686-16.803 20.39-1.059 1.136-1.971 2.067-2.736 2.813h-163.418v-365.453h-369.186c-11.046 0-20 8.954-20 20 0 11.043 8.954 20 20 20h329.186v445.453c0 17.212-6.4 25.797-12.749 30.632-7.302 5.557-16.541 7.55-22.278 7.55h-525.156c-14.878 0-21.779-5.946-25.919-12.5zM845.578 592.144c0 0 0.102-0.058 0.32-0.224-0.211 0.131-0.32 0.224-0.32 0.224z" />
<glyph unicode="&#xe9b6;" glyph-name="square" data-tags="Square" d="M108 832l20 20h768l20-20v-768l-20-20h-768l-20 20v768zM148 812v-728h728v728h-728z" />
<glyph unicode="&#xe9b7;" glyph-name="star-solid" data-tags="Star Solid" d="M502.87 907.9c2.874 8.844 15.386 8.844 18.259 0l110.851-341.161c1.283-3.955 4.97-6.634 9.13-6.634h358.72c9.299 0 13.165-11.901 5.642-17.366l-290.211-210.851c-3.363-2.445-4.771-6.778-3.485-10.733l110.848-341.162c2.874-8.845-7.248-16.198-14.771-10.733l-290.211 210.851c-3.363 2.445-7.92 2.445-11.283 0l-290.211-210.851c-7.524-5.466-17.647 1.888-14.773 10.733l110.85 341.162c1.285 3.955-0.123 8.288-3.487 10.733l-290.209 210.851c-7.524 5.466-3.657 17.366 5.643 17.366h358.719c4.16 0 7.846 2.678 9.13 6.634l110.851 341.161z" />
<glyph unicode="&#xe9bb;" d="M832 448c0-176.731-143.269-320-320-320s-320 143.269-320 320c0 176.731 143.269 320 320 320s320-143.269 320-320z" />
<glyph unicode="&#xe9bc;" d="M992 448c0-265.098-214.902-480-480-480s-480 214.902-480 480c0 265.097 214.903 480 480 480s480-214.903 480-480zM407.558 677.889c-9.648-6.386-18.448-13.126-26.464-20.222l23.059-36.541c1.699-3.382 4.352-6.192 7.629-8.083 3.28-1.894 7.040-2.784 10.819-2.56 4.362 0.275 8.547 1.802 12.061 4.4 4.47 2.979 10.006 6.314 16.534 9.933 17.709 9.84 37.712 14.813 57.968 14.403 8.714 0.074 17.386-1.245 25.686-3.901 7.482-2.358 14.426-6.166 20.432-11.213 5.792-4.96 10.416-11.139 13.546-18.093 3.126-6.954 4.678-14.512 4.547-22.138 0.282-11.6-2.403-23.078-7.805-33.347-5.178-9.437-11.706-17.882-19.51-25.402-7.805-7.45-16.179-14.333-25.19-20.72-9.008-6.384-17.382-12.912-25.187-19.651-7.434-6.346-13.994-13.645-19.51-21.712-5.181-7.664-7.808-16.675-7.808-27.104v-3.053c0.026-1.002 0.144-2 0.355-2.979l6.032-57.827h59.955l8.16 51.795c1.296 7.776 5.078 14.925 10.784 20.365 6.739 6.63 13.923 12.794 21.501 18.448l26.253 20.080c9.526 7.376 18.17 15.827 25.757 25.187 8.272 10.32 14.902 21.856 19.651 34.198 5.181 13.2 7.805 28.736 7.805 46.688 0 18.448-3.334 35.123-9.933 50.022-6.598 14.901-15.965 27.601-28.026 38.173-12.061 10.501-26.538 18.59-43.424 24.266-16.957 5.676-35.69 8.515-56.266 8.515-15.114 0-29.232-1.348-42.218-4.115-23.981-4.852-46.797-14.297-67.194-27.814zM452.259 260.33c-2.694-6.598-4.115-13.626-4.115-20.931-0.048-7.229 1.35-14.397 4.115-21.075 2.598-6.342 6.461-12.090 11.354-16.886 10.371-9.853 24.15-15.318 38.458-15.254 14.15-0.032 27.763 5.44 37.958 15.254 9.978 10.118 15.584 23.75 15.61 37.962 0.029 14.221-5.587 27.872-15.61 37.958-10.086 10.022-23.738 15.638-37.958 15.61-14.349-0.077-28.115-5.664-38.458-15.61-4.918-4.832-8.784-10.63-11.354-17.027z" />
<glyph unicode="&#xe9bd;" glyph-name="top-of-copy" data-tags="Top of copy" d="M301.36 399.613c25.632 51.264 42.64 124.886 42.64 208.387 0 83.502-17.008 157.122-42.64 208.386-26.828 53.656-56.49 71.614-77.36 71.614s-50.532-17.958-77.36-71.614c-25.632-51.264-42.64-124.883-42.64-208.386 0-83.501 17.008-157.123 42.64-208.387 26.828-53.654 56.49-71.613 77.36-71.613s50.532 17.958 77.36 71.613zM384 608c0-176.73-71.635-320-160-320s-160 143.27-160 320c0 176.731 71.635 320 160 320s160-143.269 160-320zM216 499.152c0.757 1.667 1.533 3.504 2.318 5.523 7.922 20.371 13.682 51.232 13.682 87.325s-5.76 66.955-13.682 87.325c-0.785 2.018-1.561 3.855-2.318 5.524-0.757-1.669-1.533-3.507-2.318-5.524-7.922-20.371-13.682-51.233-13.682-87.325s5.76-66.954 13.682-87.325c0.785-2.019 1.561-3.856 2.318-5.523zM272 592c0-79.53-25.072-144-56-144s-56 64.47-56 144c0 79.529 25.072 144 56 144s56-64.471 56-144zM672 932h-448v-40h447.434c44.566-2.591 111.987-20.677 167.926-66.299 55.36-45.15 100.64-118.134 100.64-233.701v-588h-552v588h-40v-608c0-11.046 8.954-20 20-20h592c11.046 0 20 8.954 20 20v608c0 127.633-50.72 211.982-115.36 264.699-63.834 52.060-140.093 72.413-191.53 75.27-0.371 0.021-0.739 0.031-1.11 0.031zM352 324h-112v-40h112v40zM944 532h-560v-40h560v40zM621.501 314.253h98.624l18.749 52.749h59.814l-101.626-256h-52.125l-102.189 256h59.814l18.938-52.749zM704.938 271.526h-68.25l34.314-95.824 33.936 95.824zM560 817.846h84.125l-11.875 46.154h55.75l48-224h-91.875l-196.125 224h80l32-46.154zM656 780.461h-66.061l82.061-84.461-16 84.461z" />
</font>
</defs>
</svg>
